<svg width="39" height="45" viewBox="0 0 39 45" fill="none" xmlns="http://www.w3.org/2000/svg">
<path fill-rule="evenodd" clip-rule="evenodd" d="M38.63 6.67002C38.04 4.33002 34.81 0.400024 19.72 0.400024C12.61 0.400024 7.44997 1.18002 4.37997 2.72002C0.989971 4.42002 0.719971 6.72002 0.719971 7.40002V20.7C0.735839 28.9919 5.21374 36.6334 12.44 40.7L18.25 43.97C19.1628 44.4831 20.2771 44.4831 21.19 43.97L27 40.7C34.2262 36.6334 38.7041 28.9919 38.72 20.7V7.40002C38.72 7.15392 38.6898 6.90874 38.63 6.67002ZM35.72 20.67C35.7204 27.894 31.8252 34.5567 25.53 38.1L19.72 41.4L13.91 38.13C7.61474 34.5867 3.71955 27.924 3.71997 20.7V7.40002C3.71997 7.40002 3.71997 3.40002 19.72 3.40002C34.72 3.40002 35.72 7.40002 35.72 7.40002V20.67Z" fill="#CE6CB1"/>
<path fill-rule="evenodd" clip-rule="evenodd" d="M19.72 10.4C12.44 10.4 7.67001 17.99 7.15001 18.85C6.57475 19.8033 6.57475 20.9968 7.15001 21.95C7.67001 22.81 12.44 30.38 19.71 30.4C26.98 30.42 31.77 22.81 32.29 21.94C32.8612 20.9892 32.8612 19.8008 32.29 18.85C31.77 17.99 27 10.4 19.72 10.4ZM19.72 27.4C13.93 27.4 9.72003 20.4 9.72003 20.4C9.72003 20.4 13.93 13.4 19.72 13.4C25.51 13.4 29.72 20.4 29.72 20.4C29.72 20.4 25.52 27.4 19.74 27.4H19.72Z" fill="#CE6CB1"/>
<path fill-rule="evenodd" clip-rule="evenodd" d="M19.72 15.4C16.9585 15.4 14.72 17.6386 14.72 20.4C14.72 23.1614 16.9585 25.4 19.72 25.4C22.4814 25.4 24.72 23.1614 24.72 20.4C24.72 17.6386 22.4814 15.4 19.72 15.4ZM19.72 22.4C18.6154 22.4 17.72 21.5046 17.72 20.4C17.72 19.2955 18.6154 18.4 19.72 18.4C20.8245 18.4 21.72 19.2955 21.72 20.4C21.72 21.5046 20.8245 22.4 19.72 22.4Z" fill="#CE6CB1"/>
</svg>
