<svg width="514" height="482" viewBox="0 0 514 482" fill="none" xmlns="http://www.w3.org/2000/svg">
<mask id="path-1-inside-1" fill="white">
<path fill-rule="evenodd" clip-rule="evenodd" d="M174.558 59C171.244 59 168.558 61.6863 168.558 65V73H163C156.373 73 151 78.3726 151 85V215C151 221.627 156.373 227 163 227H355C361.627 227 367 221.627 367 215V85C367 78.3726 361.627 73 355 73H243.441V65C243.441 61.6863 240.754 59 237.441 59H174.558Z"/>
</mask>
<path fill-rule="evenodd" clip-rule="evenodd" d="M174.558 59C171.244 59 168.558 61.6863 168.558 65V73H163C156.373 73 151 78.3726 151 85V215C151 221.627 156.373 227 163 227H355C361.627 227 367 221.627 367 215V85C367 78.3726 361.627 73 355 73H243.441V65C243.441 61.6863 240.754 59 237.441 59H174.558Z" fill="#F0F3F5"/>
<path d="M168.558 73V77H172.558V73H168.558ZM243.441 73H239.441V77H243.441V73ZM172.558 65C172.558 63.8954 173.453 63 174.558 63V55C169.035 55 164.558 59.4771 164.558 65H172.558ZM172.558 73V65H164.558V73H172.558ZM163 77H168.558V69H163V77ZM155 85C155 80.5817 158.582 77 163 77V69C154.163 69 147 76.1634 147 85H155ZM155 215V85H147V215H155ZM163 223C158.582 223 155 219.418 155 215H147C147 223.837 154.163 231 163 231V223ZM355 223H163V231H355V223ZM363 215C363 219.418 359.418 223 355 223V231C363.837 231 371 223.837 371 215H363ZM363 85V215H371V85H363ZM355 77C359.418 77 363 80.5817 363 85H371C371 76.1634 363.837 69 355 69V77ZM243.441 77H355V69H243.441V77ZM239.441 65V73H247.441V65H239.441ZM237.441 63C238.545 63 239.441 63.8954 239.441 65H247.441C247.441 59.4771 242.964 55 237.441 55V63ZM174.558 63H237.441V55H174.558V63Z" fill="#848A8A" mask="url(#path-1-inside-1)"/>
<rect x="129.317" y="59.1965" width="128" height="86" rx="10" transform="rotate(-10 129.317 59.1965)" fill="white" stroke="#C4CACC" stroke-width="4"/>
<mask id="path-4-inside-2" fill="white">
<path d="M148.599 54.6399C148.407 53.5521 149.133 52.5148 150.221 52.323L165.978 49.5446C167.066 49.3528 168.103 50.0792 168.295 51.1669L148.599 54.6399Z"/>
</mask>
<path d="M148.599 54.6399C148.407 53.5521 149.133 52.5148 150.221 52.323L165.978 49.5446C167.066 49.3528 168.103 50.0792 168.295 51.1669L148.599 54.6399Z" fill="white"/>
<path d="M150.916 56.2622L166.673 53.4839L165.284 45.6054L149.527 48.3838L150.916 56.2622ZM167.6 47.2277L147.904 50.7007L149.294 58.5791L168.99 55.1062L167.6 47.2277ZM166.673 53.4839C165.585 53.6757 164.548 52.9493 164.356 51.8615L172.234 50.4723C171.659 47.209 168.547 45.03 165.284 45.6054L166.673 53.4839ZM149.527 48.3838C146.263 48.9592 144.084 52.0711 144.66 55.3345L152.538 53.9453C152.73 55.0331 152.004 56.0704 150.916 56.2622L149.527 48.3838Z" fill="#C4CACC" mask="url(#path-4-inside-2)"/>
<path d="M135.582 87.7197L259.607 65.8507" stroke="#C4CACC" stroke-width="4" stroke-linecap="square"/>
<path fill-rule="evenodd" clip-rule="evenodd" d="M208.97 114.438C222.024 112.137 230.74 99.6888 228.438 86.6354C226.137 73.5819 213.689 64.8658 200.635 67.1675C187.582 69.4692 178.866 81.917 181.168 94.9705C183.469 108.024 195.917 116.74 208.97 114.438Z" fill="white" stroke="#C4CACC" stroke-width="4"/>
<path d="M219.466 88.4363C220.904 96.5947 215.457 104.375 207.298 105.813C199.14 107.252 191.36 101.804 189.922 93.6457C188.483 85.4873 193.931 77.7074 202.089 76.2689C210.247 74.8303 218.027 80.2779 219.466 88.4363Z" stroke="#E1E4E5" stroke-width="4"/>
<rect x="226.158" y="49.6314" width="20" height="14" rx="3" transform="rotate(-10 226.158 49.6314)" fill="#F0F3F5" stroke="#C4CACC" stroke-width="2"/>
<path fill-rule="evenodd" clip-rule="evenodd" d="M148.328 75.573C150.504 75.1894 151.957 73.1148 151.573 70.9392C151.189 68.7636 149.115 67.311 146.939 67.6946C144.764 68.0782 143.311 70.1528 143.695 72.3284C144.078 74.504 146.153 75.9566 148.328 75.573Z" fill="#C4CACC"/>
<path fill-rule="evenodd" clip-rule="evenodd" d="M160.328 73.573C162.504 73.1894 163.957 71.1148 163.573 68.9392C163.189 66.7636 161.115 65.311 158.939 65.6946C156.764 66.0782 155.311 68.1528 155.695 70.3284C156.078 72.504 158.153 73.9566 160.328 73.573Z" fill="#E1E4E5"/>
<path d="M299.168 156.297L342.569 162.396C342.698 162.414 343.085 162.376 343.626 161.957C344.141 161.557 344.622 160.932 344.9 160.189L353.171 138.094C353.522 137.157 354.185 136.382 354.726 135.83L294.81 127.409C295.177 128.091 295.597 129.016 295.676 130.014L297.536 153.532C297.598 154.315 297.888 155.05 298.274 155.579C298.68 156.136 299.042 156.279 299.168 156.297Z" fill="white" stroke="#848A8A" stroke-width="4"/>
<path fill-rule="evenodd" clip-rule="evenodd" d="M321.422 4.68199L364.822 10.7816C366.489 11.0159 367.987 13.0555 368.17 15.3689L370.031 38.8874C370.213 41.1867 373.85 44.3649 371.717 44.065L305.62 34.7757C303.491 34.4765 307.854 32.4368 308.668 30.2635L316.939 8.16892C317.748 6.00888 319.751 4.44727 321.422 4.68199Z" fill="white" stroke="#C4CACC" stroke-width="4"/>
<rect x="302.024" y="35.7766" width="72" height="88" rx="10" transform="rotate(8 302.024 35.7766)" fill="white"/>
<rect x="302.024" y="35.7766" width="72" height="88" rx="10" transform="rotate(8 302.024 35.7766)" stroke="#C4CACC" stroke-width="12"/>
<rect x="302.024" y="35.7766" width="72" height="88" rx="10" transform="rotate(8 302.024 35.7766)" stroke="white" stroke-width="12"/>
<rect x="302.024" y="35.7766" width="72" height="88" rx="10" transform="rotate(8 302.024 35.7766)" stroke="#C4CACC" stroke-width="12"/>
<path d="M317 14.9805C317.154 13.8867 318.359 13.1518 319.7 13.3403L364.37 19.6183C365.708 19.8063 366.668 20.8377 366.513 21.9392V21.9392" stroke="#C4CACC" stroke-width="2"/>
<path d="M315 20.9805C315.154 19.8867 316.402 19.1579 317.797 19.354L364.254 25.883C365.645 26.0785 366.649 27.1161 366.494 28.2175V28.2175" stroke="#C4CACC" stroke-width="2"/>
<path d="M311 26.9805C311.154 25.8867 312.488 25.17 313.991 25.3812L364.021 32.4125C365.519 32.623 366.61 33.6728 366.455 34.7742V34.7742" stroke="#C4CACC" stroke-width="2"/>
<path d="M347.73 155.043C347.576 156.137 346.328 156.866 344.933 156.669L298.476 150.14C297.085 149.945 296.081 148.907 296.236 147.806V147.806" stroke="#848A8A" stroke-width="2"/>
<path d="M348.843 147.121C348.69 148.215 347.442 148.943 346.046 148.747L299.59 142.218C298.199 142.023 297.195 140.985 297.349 139.884V139.884" stroke="#848A8A" stroke-width="2"/>
<path d="M351.937 139.477C351.784 140.571 350.449 141.287 348.947 141.076L298.916 134.045C297.418 133.834 296.327 132.785 296.482 131.683V131.683" stroke="#848A8A" stroke-width="2"/>
<rect x="131" y="105" width="254.534" height="122" rx="10" fill="white" stroke="#4A5050" stroke-width="4"/>
<path fill-rule="evenodd" clip-rule="evenodd" d="M258 182.226L239.779 193.08L244.47 172.396L228.517 158.42L249.638 156.491L258 137L266.362 156.491L287.483 158.42L271.53 172.396L276.221 193.08L258 182.226Z" fill="#E1E4E5"/>
<path d="M109.02 309H100.94L87.897 286.318H87.7125C87.9722 290.324 88.1021 293.182 88.1021 294.891V309H82.4214V279.018H90.44L103.462 301.474H103.606C103.401 297.577 103.298 294.822 103.298 293.209V279.018H109.02V309ZM121.261 297.495C121.261 299.765 121.63 301.48 122.369 302.643C123.121 303.805 124.337 304.386 126.019 304.386C127.687 304.386 128.883 303.812 129.608 302.663C130.346 301.501 130.715 299.778 130.715 297.495C130.715 295.226 130.346 293.523 129.608 292.389C128.87 291.254 127.66 290.687 125.978 290.687C124.31 290.687 123.107 291.254 122.369 292.389C121.63 293.51 121.261 295.212 121.261 297.495ZM137.114 297.495C137.114 301.228 136.129 304.146 134.161 306.252C132.192 308.357 129.451 309.41 125.937 309.41C123.736 309.41 121.794 308.932 120.113 307.975C118.431 307.004 117.139 305.616 116.237 303.812C115.335 302.007 114.883 299.901 114.883 297.495C114.883 293.749 115.861 290.837 117.816 288.759C119.771 286.681 122.519 285.642 126.06 285.642C128.261 285.642 130.203 286.12 131.884 287.077C133.566 288.034 134.858 289.408 135.76 291.199C136.663 292.99 137.114 295.089 137.114 297.495ZM171.153 279.018H177.572L167.379 309H160.448L150.276 279.018H156.695L162.335 296.859C162.649 297.912 162.97 299.143 163.298 300.551C163.64 301.945 163.852 302.916 163.934 303.463C164.085 302.205 164.597 300.004 165.472 296.859L171.153 279.018ZM180.79 280.146C180.79 278.108 181.924 277.09 184.194 277.09C186.463 277.09 187.598 278.108 187.598 280.146C187.598 281.116 187.311 281.875 186.737 282.422C186.176 282.955 185.329 283.222 184.194 283.222C181.924 283.222 180.79 282.196 180.79 280.146ZM187.311 309H181.056V286.072H187.311V309ZM201.336 309.41C198.643 309.41 196.524 308.364 194.979 306.272C193.448 304.181 192.682 301.282 192.682 297.577C192.682 293.817 193.461 290.892 195.02 288.8C196.592 286.694 198.752 285.642 201.501 285.642C204.385 285.642 206.586 286.763 208.104 289.005H208.309C207.995 287.296 207.837 285.771 207.837 284.432V277.09H214.113V309H209.314L208.104 306.026H207.837C206.416 308.282 204.249 309.41 201.336 309.41ZM203.531 304.427C205.13 304.427 206.299 303.962 207.038 303.032C207.79 302.103 208.2 300.523 208.268 298.295V297.618C208.268 295.157 207.885 293.394 207.12 292.327C206.368 291.261 205.137 290.728 203.428 290.728C202.034 290.728 200.947 291.322 200.168 292.512C199.402 293.688 199.019 295.403 199.019 297.659C199.019 299.915 199.409 301.61 200.188 302.745C200.967 303.866 202.082 304.427 203.531 304.427ZM230.333 290.092C229.006 290.092 227.967 290.516 227.215 291.363C226.463 292.197 226.033 293.387 225.923 294.932H234.701C234.673 293.387 234.27 292.197 233.491 291.363C232.711 290.516 231.659 290.092 230.333 290.092ZM231.214 309.41C227.523 309.41 224.638 308.392 222.56 306.354C220.482 304.317 219.443 301.433 219.443 297.7C219.443 293.858 220.4 290.892 222.314 288.8C224.242 286.694 226.901 285.642 230.292 285.642C233.532 285.642 236.054 286.564 237.859 288.41C239.664 290.256 240.566 292.806 240.566 296.06V299.095H225.78C225.848 300.872 226.375 302.26 227.359 303.258C228.343 304.256 229.724 304.755 231.501 304.755C232.882 304.755 234.188 304.611 235.418 304.324C236.649 304.037 237.934 303.579 239.274 302.95V307.79C238.18 308.337 237.011 308.74 235.767 309C234.523 309.273 233.005 309.41 231.214 309.41ZM250.818 297.495C250.818 299.765 251.187 301.48 251.925 302.643C252.677 303.805 253.894 304.386 255.576 304.386C257.244 304.386 258.44 303.812 259.165 302.663C259.903 301.501 260.272 299.778 260.272 297.495C260.272 295.226 259.903 293.523 259.165 292.389C258.426 291.254 257.216 290.687 255.535 290.687C253.867 290.687 252.664 291.254 251.925 292.389C251.187 293.51 250.818 295.212 250.818 297.495ZM266.67 297.495C266.67 301.228 265.686 304.146 263.717 306.252C261.749 308.357 259.007 309.41 255.494 309.41C253.292 309.41 251.351 308.932 249.669 307.975C247.988 307.004 246.696 305.616 245.793 303.812C244.891 302.007 244.44 299.901 244.44 297.495C244.44 293.749 245.417 290.837 247.373 288.759C249.328 286.681 252.076 285.642 255.617 285.642C257.818 285.642 259.759 286.12 261.441 287.077C263.123 288.034 264.415 289.408 265.317 291.199C266.219 292.99 266.67 295.089 266.67 297.495ZM288.017 302.191C288.017 304.543 287.197 306.334 285.556 307.564C283.929 308.795 281.489 309.41 278.235 309.41C276.567 309.41 275.145 309.294 273.969 309.062C272.793 308.843 271.693 308.515 270.667 308.077V302.909C271.83 303.456 273.135 303.914 274.584 304.283C276.047 304.652 277.333 304.837 278.44 304.837C280.709 304.837 281.844 304.181 281.844 302.868C281.844 302.376 281.694 301.979 281.393 301.679C281.092 301.364 280.573 301.016 279.834 300.633C279.096 300.236 278.112 299.778 276.881 299.259C275.118 298.521 273.819 297.837 272.985 297.208C272.165 296.579 271.563 295.861 271.18 295.055C270.811 294.234 270.626 293.229 270.626 292.04C270.626 290.003 271.413 288.431 272.985 287.323C274.571 286.202 276.813 285.642 279.711 285.642C282.473 285.642 285.16 286.243 287.771 287.446L285.884 291.958C284.736 291.466 283.663 291.062 282.665 290.748C281.667 290.434 280.648 290.276 279.609 290.276C277.763 290.276 276.84 290.775 276.84 291.773C276.84 292.334 277.134 292.819 277.722 293.229C278.324 293.64 279.629 294.248 281.639 295.055C283.43 295.779 284.743 296.456 285.577 297.085C286.411 297.714 287.026 298.438 287.422 299.259C287.819 300.079 288.017 301.057 288.017 302.191ZM323.02 309L320.846 301.863H309.916L307.742 309H300.892L311.474 278.895H319.247L329.87 309H323.02ZM319.329 296.531C317.319 290.064 316.184 286.407 315.924 285.56C315.678 284.712 315.5 284.042 315.391 283.55C314.94 285.3 313.648 289.627 311.515 296.531H319.329ZM340.614 309.41C337.92 309.41 335.801 308.364 334.256 306.272C332.725 304.181 331.959 301.282 331.959 297.577C331.959 293.817 332.739 290.892 334.297 288.8C335.87 286.694 338.03 285.642 340.778 285.642C343.663 285.642 345.864 286.763 347.381 289.005H347.586C347.272 287.296 347.115 285.771 347.115 284.432V277.09H353.39V309H348.591L347.381 306.026H347.115C345.693 308.282 343.526 309.41 340.614 309.41ZM342.808 304.427C344.408 304.427 345.577 303.962 346.315 303.032C347.067 302.103 347.477 300.523 347.545 298.295V297.618C347.545 295.157 347.163 293.394 346.397 292.327C345.645 291.261 344.415 290.728 342.706 290.728C341.311 290.728 340.224 291.322 339.445 292.512C338.679 293.688 338.296 295.403 338.296 297.659C338.296 299.915 338.686 301.61 339.465 302.745C340.245 303.866 341.359 304.427 342.808 304.427ZM367.374 309.41C364.681 309.41 362.562 308.364 361.017 306.272C359.486 304.181 358.72 301.282 358.72 297.577C358.72 293.817 359.499 290.892 361.058 288.8C362.63 286.694 364.79 285.642 367.539 285.642C370.423 285.642 372.624 286.763 374.142 289.005H374.347C374.033 287.296 373.875 285.771 373.875 284.432V277.09H380.151V309H375.352L374.142 306.026H373.875C372.454 308.282 370.287 309.41 367.374 309.41ZM369.569 304.427C371.168 304.427 372.337 303.962 373.076 303.032C373.828 302.103 374.238 300.523 374.306 298.295V297.618C374.306 295.157 373.923 293.394 373.158 292.327C372.406 291.261 371.175 290.728 369.466 290.728C368.072 290.728 366.985 291.322 366.206 292.512C365.44 293.688 365.057 295.403 365.057 297.659C365.057 299.915 365.447 301.61 366.226 302.745C367.005 303.866 368.12 304.427 369.569 304.427ZM396.371 290.092C395.044 290.092 394.005 290.516 393.253 291.363C392.501 292.197 392.071 293.387 391.961 294.932H400.739C400.711 293.387 400.308 292.197 399.529 291.363C398.749 290.516 397.697 290.092 396.371 290.092ZM397.252 309.41C393.561 309.41 390.676 308.392 388.598 306.354C386.52 304.317 385.481 301.433 385.481 297.7C385.481 293.858 386.438 290.892 388.352 288.8C390.28 286.694 392.939 285.642 396.33 285.642C399.57 285.642 402.092 286.564 403.897 288.41C405.702 290.256 406.604 292.806 406.604 296.06V299.095H391.818C391.886 300.872 392.413 302.26 393.397 303.258C394.381 304.256 395.762 304.755 397.54 304.755C398.92 304.755 400.226 304.611 401.457 304.324C402.687 304.037 403.972 303.579 405.312 302.95V307.79C404.218 308.337 403.049 308.74 401.805 309C400.561 309.273 399.043 309.41 397.252 309.41ZM419.132 309.41C416.439 309.41 414.32 308.364 412.775 306.272C411.244 304.181 410.478 301.282 410.478 297.577C410.478 293.817 411.257 290.892 412.816 288.8C414.388 286.694 416.548 285.642 419.296 285.642C422.181 285.642 424.382 286.763 425.9 289.005H426.105C425.79 287.296 425.633 285.771 425.633 284.432V277.09H431.909V309H427.11L425.9 306.026H425.633C424.211 308.282 422.044 309.41 419.132 309.41ZM421.327 304.427C422.926 304.427 424.095 303.962 424.833 303.032C425.585 302.103 425.996 300.523 426.064 298.295V297.618C426.064 295.157 425.681 293.394 424.915 292.327C424.164 291.261 422.933 290.728 421.224 290.728C419.83 290.728 418.743 291.322 417.963 292.512C417.198 293.688 416.815 295.403 416.815 297.659C416.815 299.915 417.205 301.61 417.984 302.745C418.763 303.866 419.877 304.427 421.327 304.427Z" fill="#443C43"/>
<path d="M33.3889 351.906H34.9826C36.4722 351.906 37.5868 351.615 38.3264 351.031C39.066 350.438 39.4357 349.578 39.4357 348.453C39.4357 347.318 39.1232 346.479 38.4982 345.938C37.8837 345.396 36.9149 345.125 35.592 345.125H33.3889V351.906ZM44.3264 348.281C44.3264 350.74 43.5555 352.62 42.0139 353.922C40.4826 355.224 38.3003 355.875 35.467 355.875H33.3889V364H28.5451V341.156H35.842C38.6128 341.156 40.717 341.755 42.1545 342.953C43.6024 344.141 44.3264 345.917 44.3264 348.281ZM53.1686 364H48.403V339.688H53.1686V364ZM65.5578 349.594C64.5473 349.594 63.7557 349.917 63.1828 350.562C62.6098 351.198 62.2817 352.104 62.1984 353.281H68.8859C68.865 352.104 68.5578 351.198 67.964 350.562C67.3703 349.917 66.5682 349.594 65.5578 349.594ZM66.2296 364.312C63.4171 364.312 61.2192 363.536 59.6359 361.984C58.0525 360.432 57.2609 358.234 57.2609 355.391C57.2609 352.464 57.99 350.203 59.4484 348.609C60.9171 347.005 62.9432 346.203 65.5265 346.203C67.9953 346.203 69.9171 346.906 71.2921 348.312C72.6671 349.719 73.3546 351.661 73.3546 354.141V356.453H62.089C62.1411 357.807 62.5421 358.865 63.2921 359.625C64.0421 360.385 65.0942 360.766 66.4484 360.766C67.5005 360.766 68.4953 360.656 69.4328 360.438C70.3703 360.219 71.3494 359.87 72.3703 359.391V363.078C71.5369 363.495 70.6463 363.802 69.6984 364C68.7505 364.208 67.5942 364.312 66.2296 364.312ZM88.4625 364L87.5406 361.625H87.4156C86.6136 362.635 85.7854 363.339 84.9313 363.734C84.0875 364.12 82.9833 364.312 81.6188 364.312C79.9417 364.312 78.6188 363.833 77.65 362.875C76.6917 361.917 76.2125 360.552 76.2125 358.781C76.2125 356.927 76.8583 355.562 78.15 354.688C79.4521 353.802 81.4104 353.312 84.025 353.219L87.0563 353.125V352.359C87.0563 350.589 86.15 349.703 84.3375 349.703C82.9417 349.703 81.3011 350.125 79.4156 350.969L77.8375 347.75C79.8479 346.698 82.0771 346.172 84.525 346.172C86.8688 346.172 88.6656 346.682 89.9156 347.703C91.1656 348.724 91.7906 350.276 91.7906 352.359V364H88.4625ZM87.0563 355.906L85.2125 355.969C83.8271 356.01 82.7958 356.26 82.1188 356.719C81.4417 357.177 81.1031 357.875 81.1031 358.812C81.1031 360.156 81.874 360.828 83.4156 360.828C84.5198 360.828 85.4 360.51 86.0563 359.875C86.7229 359.24 87.0563 358.396 87.0563 357.344V355.906ZM109.039 358.812C109.039 360.604 108.414 361.969 107.164 362.906C105.925 363.844 104.065 364.312 101.586 364.312C100.315 364.312 99.2318 364.224 98.336 364.047C97.4402 363.88 96.6016 363.63 95.8204 363.297V359.359C96.7058 359.776 97.7006 360.125 98.8048 360.406C99.9193 360.688 100.899 360.828 101.742 360.828C103.471 360.828 104.336 360.328 104.336 359.328C104.336 358.953 104.221 358.651 103.992 358.422C103.763 358.182 103.367 357.917 102.805 357.625C102.242 357.323 101.492 356.974 100.555 356.578C99.211 356.016 98.2214 355.495 97.586 355.016C96.961 354.536 96.5027 353.99 96.211 353.375C95.9298 352.75 95.7891 351.984 95.7891 351.078C95.7891 349.526 96.3881 348.328 97.586 347.484C98.7943 346.63 100.503 346.203 102.711 346.203C104.815 346.203 106.862 346.661 108.852 347.578L107.414 351.016C106.539 350.641 105.721 350.333 104.961 350.094C104.201 349.854 103.425 349.734 102.633 349.734C101.227 349.734 100.524 350.115 100.524 350.875C100.524 351.302 100.747 351.672 101.195 351.984C101.654 352.297 102.649 352.76 104.18 353.375C105.544 353.927 106.544 354.443 107.18 354.922C107.815 355.401 108.284 355.953 108.586 356.578C108.888 357.203 109.039 357.948 109.039 358.812ZM120.131 349.594C119.121 349.594 118.329 349.917 117.756 350.562C117.183 351.198 116.855 352.104 116.772 353.281H123.46C123.439 352.104 123.131 351.198 122.538 350.562C121.944 349.917 121.142 349.594 120.131 349.594ZM120.803 364.312C117.991 364.312 115.793 363.536 114.21 361.984C112.626 360.432 111.835 358.234 111.835 355.391C111.835 352.464 112.564 350.203 114.022 348.609C115.491 347.005 117.517 346.203 120.1 346.203C122.569 346.203 124.491 346.906 125.866 348.312C127.241 349.719 127.928 351.661 127.928 354.141V356.453H116.663C116.715 357.807 117.116 358.865 117.866 359.625C118.616 360.385 119.668 360.766 121.022 360.766C122.074 360.766 123.069 360.656 124.006 360.438C124.944 360.219 125.923 359.87 126.944 359.391V363.078C126.111 363.495 125.22 363.802 124.272 364C123.324 364.208 122.168 364.312 120.803 364.312ZM151.488 364L150.566 361.625H150.441C149.639 362.635 148.811 363.339 147.957 363.734C147.113 364.12 146.009 364.312 144.644 364.312C142.967 364.312 141.644 363.833 140.675 362.875C139.717 361.917 139.238 360.552 139.238 358.781C139.238 356.927 139.884 355.562 141.175 354.688C142.477 353.802 144.436 353.312 147.05 353.219L150.082 353.125V352.359C150.082 350.589 149.175 349.703 147.363 349.703C145.967 349.703 144.326 350.125 142.441 350.969L140.863 347.75C142.873 346.698 145.102 346.172 147.55 346.172C149.894 346.172 151.691 346.682 152.941 347.703C154.191 348.724 154.816 350.276 154.816 352.359V364H151.488ZM150.082 355.906L148.238 355.969C146.852 356.01 145.821 356.26 145.144 356.719C144.467 357.177 144.128 357.875 144.128 358.812C144.128 360.156 144.899 360.828 146.441 360.828C147.545 360.828 148.425 360.51 149.082 359.875C149.748 359.24 150.082 358.396 150.082 357.344V355.906ZM165.408 364.312C163.356 364.312 161.741 363.516 160.564 361.922C159.398 360.328 158.814 358.12 158.814 355.297C158.814 352.432 159.408 350.203 160.596 348.609C161.794 347.005 163.439 346.203 165.533 346.203C167.731 346.203 169.408 347.057 170.564 348.766H170.721C170.481 347.464 170.361 346.302 170.361 345.281V339.688H175.143V364H171.486L170.564 361.734H170.361C169.278 363.453 167.627 364.312 165.408 364.312ZM167.08 360.516C168.299 360.516 169.189 360.161 169.752 359.453C170.325 358.745 170.637 357.542 170.689 355.844V355.328C170.689 353.453 170.398 352.109 169.814 351.297C169.241 350.484 168.304 350.078 167.002 350.078C165.939 350.078 165.111 350.531 164.518 351.438C163.934 352.333 163.643 353.641 163.643 355.359C163.643 357.078 163.939 358.37 164.533 359.234C165.127 360.089 165.976 360.516 167.08 360.516ZM185.797 364.312C183.745 364.312 182.131 363.516 180.954 361.922C179.787 360.328 179.204 358.12 179.204 355.297C179.204 352.432 179.797 350.203 180.985 348.609C182.183 347.005 183.829 346.203 185.922 346.203C188.12 346.203 189.797 347.057 190.954 348.766H191.11C190.87 347.464 190.75 346.302 190.75 345.281V339.688H195.532V364H191.875L190.954 361.734H190.75C189.667 363.453 188.016 364.312 185.797 364.312ZM187.469 360.516C188.688 360.516 189.579 360.161 190.141 359.453C190.714 358.745 191.026 357.542 191.079 355.844V355.328C191.079 353.453 190.787 352.109 190.204 351.297C189.631 350.484 188.693 350.078 187.391 350.078C186.329 350.078 185.5 350.531 184.907 351.438C184.323 352.333 184.032 353.641 184.032 355.359C184.032 357.078 184.329 358.37 184.922 359.234C185.516 360.089 186.365 360.516 187.469 360.516ZM213.263 364L206.607 346.531H211.591L214.966 356.484C215.341 357.745 215.576 358.938 215.669 360.062H215.763C215.815 359.062 216.05 357.87 216.466 356.484L219.826 346.531H224.81L218.154 364H213.263ZM227.262 342.016C227.262 340.464 228.126 339.688 229.855 339.688C231.584 339.688 232.449 340.464 232.449 342.016C232.449 342.755 232.23 343.333 231.793 343.75C231.366 344.156 230.72 344.359 229.855 344.359C228.126 344.359 227.262 343.578 227.262 342.016ZM232.23 364H227.465V346.531H232.23V364ZM242.916 364.312C240.864 364.312 239.25 363.516 238.073 361.922C236.906 360.328 236.323 358.12 236.323 355.297C236.323 352.432 236.916 350.203 238.104 348.609C239.302 347.005 240.948 346.203 243.041 346.203C245.239 346.203 246.916 347.057 248.073 348.766H248.229C247.989 347.464 247.869 346.302 247.869 345.281V339.688H252.651V364H248.994L248.073 361.734H247.869C246.786 363.453 245.135 364.312 242.916 364.312ZM244.588 360.516C245.807 360.516 246.698 360.161 247.26 359.453C247.833 358.745 248.145 357.542 248.198 355.844V355.328C248.198 353.453 247.906 352.109 247.323 351.297C246.75 350.484 245.812 350.078 244.51 350.078C243.448 350.078 242.619 350.531 242.026 351.438C241.442 352.333 241.151 353.641 241.151 355.359C241.151 357.078 241.448 358.37 242.041 359.234C242.635 360.089 243.484 360.516 244.588 360.516ZM265.009 349.594C263.998 349.594 263.206 349.917 262.634 350.562C262.061 351.198 261.733 352.104 261.649 353.281H268.337C268.316 352.104 268.009 351.198 267.415 350.562C266.821 349.917 266.019 349.594 265.009 349.594ZM265.68 364.312C262.868 364.312 260.67 363.536 259.087 361.984C257.503 360.432 256.712 358.234 256.712 355.391C256.712 352.464 257.441 350.203 258.899 348.609C260.368 347.005 262.394 346.203 264.977 346.203C267.446 346.203 269.368 346.906 270.743 348.312C272.118 349.719 272.805 351.661 272.805 354.141V356.453H261.54C261.592 357.807 261.993 358.865 262.743 359.625C263.493 360.385 264.545 360.766 265.899 360.766C266.951 360.766 267.946 360.656 268.884 360.438C269.821 360.219 270.8 359.87 271.821 359.391V363.078C270.988 363.495 270.097 363.802 269.149 364C268.201 364.208 267.045 364.312 265.68 364.312ZM280.616 355.234C280.616 356.964 280.898 358.271 281.46 359.156C282.033 360.042 282.96 360.484 284.241 360.484C285.512 360.484 286.424 360.047 286.976 359.172C287.538 358.286 287.82 356.974 287.82 355.234C287.82 353.505 287.538 352.208 286.976 351.344C286.413 350.479 285.491 350.047 284.21 350.047C282.939 350.047 282.023 350.479 281.46 351.344C280.898 352.198 280.616 353.495 280.616 355.234ZM292.695 355.234C292.695 358.078 291.945 360.302 290.445 361.906C288.945 363.51 286.856 364.312 284.179 364.312C282.502 364.312 281.023 363.948 279.741 363.219C278.46 362.479 277.476 361.422 276.788 360.047C276.101 358.672 275.757 357.068 275.757 355.234C275.757 352.38 276.502 350.161 277.991 348.578C279.481 346.995 281.575 346.203 284.273 346.203C285.95 346.203 287.429 346.568 288.71 347.297C289.991 348.026 290.976 349.073 291.663 350.438C292.351 351.802 292.695 353.401 292.695 355.234ZM308.959 358.812C308.959 360.604 308.334 361.969 307.084 362.906C305.844 363.844 303.985 364.312 301.506 364.312C300.235 364.312 299.151 364.224 298.256 364.047C297.36 363.88 296.521 363.63 295.74 363.297V359.359C296.625 359.776 297.62 360.125 298.724 360.406C299.839 360.688 300.818 360.828 301.662 360.828C303.391 360.828 304.256 360.328 304.256 359.328C304.256 358.953 304.141 358.651 303.912 358.422C303.683 358.182 303.287 357.917 302.724 357.625C302.162 357.323 301.412 356.974 300.474 356.578C299.131 356.016 298.141 355.495 297.506 355.016C296.881 354.536 296.422 353.99 296.131 353.375C295.849 352.75 295.709 351.984 295.709 351.078C295.709 349.526 296.308 348.328 297.506 347.484C298.714 346.63 300.422 346.203 302.631 346.203C304.735 346.203 306.782 346.661 308.771 347.578L307.334 351.016C306.459 350.641 305.641 350.333 304.881 350.094C304.12 349.854 303.344 349.734 302.552 349.734C301.146 349.734 300.443 350.115 300.443 350.875C300.443 351.302 300.667 351.672 301.115 351.984C301.573 352.297 302.568 352.76 304.099 353.375C305.464 353.927 306.464 354.443 307.099 354.922C307.735 355.401 308.203 355.953 308.506 356.578C308.808 357.203 308.959 357.948 308.959 358.812ZM330.987 346.203C333.049 346.203 334.664 347.01 335.831 348.625C336.997 350.229 337.581 352.432 337.581 355.234C337.581 358.12 336.977 360.354 335.768 361.938C334.57 363.521 332.935 364.312 330.862 364.312C328.81 364.312 327.2 363.568 326.034 362.078H325.706L324.909 364H321.268V339.688H326.034V345.344C326.034 346.062 325.971 347.214 325.846 348.797H326.034C327.148 347.068 328.799 346.203 330.987 346.203ZM329.456 350.016C328.279 350.016 327.419 350.38 326.878 351.109C326.336 351.828 326.055 353.021 326.034 354.688V355.203C326.034 357.078 326.31 358.422 326.862 359.234C327.424 360.047 328.31 360.453 329.518 360.453C330.497 360.453 331.273 360.005 331.846 359.109C332.43 358.203 332.721 356.891 332.721 355.172C332.721 353.453 332.43 352.167 331.846 351.312C331.263 350.448 330.466 350.016 329.456 350.016ZM339.157 346.531H344.376L347.673 356.359C347.954 357.214 348.147 358.224 348.251 359.391H348.345C348.459 358.318 348.683 357.307 349.017 356.359L352.251 346.531H357.36L349.97 366.234C349.293 368.057 348.324 369.422 347.064 370.328C345.814 371.234 344.35 371.688 342.673 371.688C341.85 371.688 341.043 371.599 340.251 371.422V367.641C340.824 367.776 341.449 367.844 342.126 367.844C342.97 367.844 343.704 367.583 344.329 367.062C344.965 366.552 345.459 365.776 345.814 364.734L346.095 363.875L339.157 346.531ZM375.561 364.312C370.123 364.312 367.404 361.328 367.404 355.359C367.404 352.391 368.144 350.125 369.623 348.562C371.102 346.99 373.222 346.203 375.982 346.203C378.003 346.203 379.816 346.599 381.42 347.391L380.014 351.078C379.264 350.776 378.566 350.531 377.92 350.344C377.274 350.146 376.628 350.047 375.982 350.047C373.503 350.047 372.264 351.807 372.264 355.328C372.264 358.745 373.503 360.453 375.982 360.453C376.899 360.453 377.748 360.333 378.529 360.094C379.311 359.844 380.092 359.458 380.873 358.938V363.016C380.102 363.505 379.321 363.844 378.529 364.031C377.748 364.219 376.759 364.312 375.561 364.312ZM389.84 364H385.075V339.688H389.84V364ZM394.792 342.016C394.792 340.464 395.657 339.688 397.386 339.688C399.115 339.688 399.979 340.464 399.979 342.016C399.979 342.755 399.761 343.333 399.323 343.75C398.896 344.156 398.25 344.359 397.386 344.359C395.657 344.359 394.792 343.578 394.792 342.016ZM399.761 364H394.995V346.531H399.761V364ZM412.009 364.312C406.572 364.312 403.853 361.328 403.853 355.359C403.853 352.391 404.593 350.125 406.072 348.562C407.551 346.99 409.671 346.203 412.431 346.203C414.452 346.203 416.264 346.599 417.869 347.391L416.462 351.078C415.712 350.776 415.014 350.531 414.369 350.344C413.723 350.146 413.077 350.047 412.431 350.047C409.952 350.047 408.712 351.807 408.712 355.328C408.712 358.745 409.952 360.453 412.431 360.453C413.348 360.453 414.197 360.333 414.978 360.094C415.759 359.844 416.54 359.458 417.322 358.938V363.016C416.551 363.505 415.77 363.844 414.978 364.031C414.197 364.219 413.207 364.312 412.009 364.312ZM426.102 354.5L428.18 351.844L433.07 346.531H438.445L431.508 354.109L438.867 364H433.367L428.336 356.922L426.289 358.562V364H421.523V339.688H426.289V350.531L426.039 354.5H426.102ZM441.303 342.016C441.303 340.464 442.168 339.688 443.897 339.688C445.626 339.688 446.491 340.464 446.491 342.016C446.491 342.755 446.272 343.333 445.834 343.75C445.407 344.156 444.761 344.359 443.897 344.359C442.168 344.359 441.303 343.578 441.303 342.016ZM446.272 364H441.506V346.531H446.272V364ZM467.552 364H462.786V353.797C462.786 352.536 462.562 351.594 462.114 350.969C461.666 350.333 460.953 350.016 459.974 350.016C458.64 350.016 457.677 350.464 457.083 351.359C456.489 352.245 456.192 353.719 456.192 355.781V364H451.427V346.531H455.067L455.708 348.766H455.974C456.505 347.922 457.234 347.286 458.161 346.859C459.099 346.422 460.161 346.203 461.349 346.203C463.38 346.203 464.921 346.755 465.974 347.859C467.026 348.953 467.552 350.536 467.552 352.609V364ZM487.8 346.531V348.953L485.066 349.656C485.566 350.438 485.816 351.312 485.816 352.281C485.816 354.156 485.159 355.62 483.847 356.672C482.545 357.714 480.732 358.234 478.409 358.234L477.55 358.188L476.847 358.109C476.357 358.484 476.113 358.901 476.113 359.359C476.113 360.047 476.988 360.391 478.738 360.391H481.706C483.623 360.391 485.081 360.802 486.081 361.625C487.092 362.448 487.597 363.656 487.597 365.25C487.597 367.292 486.743 368.875 485.034 370C483.337 371.125 480.894 371.688 477.706 371.688C475.269 371.688 473.404 371.26 472.113 370.406C470.831 369.562 470.191 368.375 470.191 366.844C470.191 365.792 470.519 364.911 471.175 364.203C471.831 363.495 472.795 362.99 474.066 362.688C473.576 362.479 473.149 362.141 472.784 361.672C472.42 361.193 472.238 360.688 472.238 360.156C472.238 359.49 472.43 358.938 472.816 358.5C473.201 358.052 473.758 357.615 474.488 357.188C473.571 356.792 472.842 356.156 472.3 355.281C471.769 354.406 471.503 353.375 471.503 352.188C471.503 350.281 472.123 348.807 473.363 347.766C474.602 346.724 476.373 346.203 478.675 346.203C479.165 346.203 479.743 346.25 480.409 346.344C481.087 346.427 481.519 346.49 481.706 346.531H487.8ZM474.316 366.469C474.316 367.125 474.628 367.641 475.253 368.016C475.889 368.391 476.774 368.578 477.909 368.578C479.618 368.578 480.956 368.344 481.925 367.875C482.894 367.406 483.378 366.766 483.378 365.953C483.378 365.297 483.092 364.844 482.519 364.594C481.946 364.344 481.061 364.219 479.863 364.219H477.394C476.519 364.219 475.784 364.422 475.191 364.828C474.607 365.245 474.316 365.792 474.316 366.469ZM476.05 352.25C476.05 353.198 476.264 353.948 476.691 354.5C477.128 355.052 477.79 355.328 478.675 355.328C479.571 355.328 480.227 355.052 480.644 354.5C481.061 353.948 481.269 353.198 481.269 352.25C481.269 350.146 480.404 349.094 478.675 349.094C476.925 349.094 476.05 350.146 476.05 352.25ZM65.9484 404.516C66.7817 404.516 67.7817 404.333 68.9484 403.969V407.516C67.7609 408.047 66.3025 408.312 64.5734 408.312C62.6671 408.312 61.2765 407.833 60.4015 406.875C59.5369 405.906 59.1046 404.458 59.1046 402.531V394.109H56.8234V392.094L59.4484 390.5L60.8234 386.812H63.8703V390.531H68.7609V394.109H63.8703V402.531C63.8703 403.208 64.0578 403.708 64.4328 404.031C64.8182 404.354 65.3234 404.516 65.9484 404.516ZM88.7594 408H83.9938V397.797C83.9938 395.276 83.0563 394.016 81.1813 394.016C79.8479 394.016 78.8844 394.469 78.2906 395.375C77.6969 396.281 77.4 397.75 77.4 399.781V408H72.6344V383.688H77.4V388.641C77.4 389.026 77.3636 389.932 77.2906 391.359L77.1813 392.766H77.4313C78.4938 391.057 80.1813 390.203 82.4938 390.203C84.5458 390.203 86.1031 390.755 87.1656 391.859C88.2281 392.964 88.7594 394.547 88.7594 396.609V408ZM101.039 393.594C100.029 393.594 99.2371 393.917 98.6641 394.562C98.0912 395.198 97.7631 396.104 97.6798 397.281H104.367C104.346 396.104 104.039 395.198 103.445 394.562C102.852 393.917 102.05 393.594 101.039 393.594ZM101.711 408.312C98.8985 408.312 96.7006 407.536 95.1173 405.984C93.5339 404.432 92.7423 402.234 92.7423 399.391C92.7423 396.464 93.4714 394.203 94.9298 392.609C96.3985 391.005 98.4246 390.203 101.008 390.203C103.477 390.203 105.399 390.906 106.774 392.312C108.149 393.719 108.836 395.661 108.836 398.141V400.453H97.5704C97.6225 401.807 98.0235 402.865 98.7735 403.625C99.5235 404.385 100.576 404.766 101.93 404.766C102.982 404.766 103.977 404.656 104.914 404.438C105.852 404.219 106.831 403.87 107.852 403.391V407.078C107.018 407.495 106.128 407.802 105.18 408C104.232 408.208 103.076 408.312 101.711 408.312ZM126.224 398.438H120.177V395.016H126.224V388.922H129.646V395.016H135.692V398.438H129.646V404.453H126.224V398.438ZM157.893 390.203C159.955 390.203 161.57 391.01 162.736 392.625C163.903 394.229 164.486 396.432 164.486 399.234C164.486 402.12 163.882 404.354 162.674 405.938C161.476 407.521 159.84 408.312 157.768 408.312C155.715 408.312 154.106 407.568 152.939 406.078H152.611L151.814 408H148.174V383.688H152.939V389.344C152.939 390.062 152.877 391.214 152.752 392.797H152.939C154.054 391.068 155.705 390.203 157.893 390.203ZM156.361 394.016C155.184 394.016 154.325 394.38 153.783 395.109C153.241 395.828 152.96 397.021 152.939 398.688V399.203C152.939 401.078 153.215 402.422 153.768 403.234C154.33 404.047 155.215 404.453 156.424 404.453C157.403 404.453 158.179 404.005 158.752 403.109C159.335 402.203 159.627 400.891 159.627 399.172C159.627 397.453 159.335 396.167 158.752 395.312C158.169 394.448 157.372 394.016 156.361 394.016ZM180.938 408L180.297 405.766H180.047C179.537 406.578 178.813 407.208 177.875 407.656C176.938 408.094 175.87 408.312 174.672 408.312C172.62 408.312 171.073 407.766 170.032 406.672C168.99 405.568 168.469 403.984 168.469 401.922V390.531H173.235V400.734C173.235 401.995 173.459 402.943 173.907 403.578C174.355 404.203 175.068 404.516 176.047 404.516C177.381 404.516 178.344 404.073 178.938 403.188C179.532 402.292 179.829 400.812 179.829 398.75V390.531H184.594V408H180.938ZM197.093 404.516C197.926 404.516 198.926 404.333 200.093 403.969V407.516C198.905 408.047 197.447 408.312 195.718 408.312C193.811 408.312 192.421 407.833 191.546 406.875C190.681 405.906 190.249 404.458 190.249 402.531V394.109H187.968V392.094L190.593 390.5L191.968 386.812H195.015V390.531H199.905V394.109H195.015V402.531C195.015 403.208 195.202 403.708 195.577 404.031C195.962 404.354 196.468 404.516 197.093 404.516ZM211.138 404.516C211.971 404.516 212.971 404.333 214.138 403.969V407.516C212.951 408.047 211.492 408.312 209.763 408.312C207.857 408.312 206.466 407.833 205.591 406.875C204.727 405.906 204.294 404.458 204.294 402.531V394.109H202.013V392.094L204.638 390.5L206.013 386.812H209.06V390.531H213.951V394.109H209.06V402.531C209.06 403.208 209.247 403.708 209.622 404.031C210.008 404.354 210.513 404.516 211.138 404.516ZM221.621 399.234C221.621 400.964 221.902 402.271 222.465 403.156C223.038 404.042 223.965 404.484 225.246 404.484C226.517 404.484 227.428 404.047 227.98 403.172C228.543 402.286 228.824 400.974 228.824 399.234C228.824 397.505 228.543 396.208 227.98 395.344C227.418 394.479 226.496 394.047 225.215 394.047C223.944 394.047 223.027 394.479 222.465 395.344C221.902 396.198 221.621 397.495 221.621 399.234ZM233.699 399.234C233.699 402.078 232.949 404.302 231.449 405.906C229.949 407.51 227.861 408.312 225.183 408.312C223.506 408.312 222.027 407.948 220.746 407.219C219.465 406.479 218.48 405.422 217.793 404.047C217.105 402.672 216.762 401.068 216.762 399.234C216.762 396.38 217.506 394.161 218.996 392.578C220.486 390.995 222.579 390.203 225.277 390.203C226.954 390.203 228.433 390.568 229.715 391.297C230.996 392.026 231.98 393.073 232.668 394.438C233.355 395.802 233.699 397.401 233.699 399.234ZM253.901 408H249.135V397.797C249.135 396.536 248.911 395.594 248.463 394.969C248.015 394.333 247.302 394.016 246.323 394.016C244.989 394.016 244.026 394.464 243.432 395.359C242.838 396.245 242.541 397.719 242.541 399.781V408H237.776V390.531H241.416L242.057 392.766H242.323C242.854 391.922 243.583 391.286 244.51 390.859C245.448 390.422 246.51 390.203 247.698 390.203C249.729 390.203 251.27 390.755 252.323 391.859C253.375 392.953 253.901 394.536 253.901 396.609V408ZM277.116 390.203C279.179 390.203 280.794 391.01 281.96 392.625C283.127 394.229 283.71 396.432 283.71 399.234C283.71 402.12 283.106 404.354 281.898 405.938C280.7 407.521 279.064 408.312 276.991 408.312C274.939 408.312 273.33 407.568 272.163 406.078H271.835L271.038 408H267.398V383.688H272.163V389.344C272.163 390.062 272.101 391.214 271.976 392.797H272.163C273.278 391.068 274.929 390.203 277.116 390.203ZM275.585 394.016C274.408 394.016 273.549 394.38 273.007 395.109C272.465 395.828 272.184 397.021 272.163 398.688V399.203C272.163 401.078 272.439 402.422 272.991 403.234C273.554 404.047 274.439 404.453 275.648 404.453C276.627 404.453 277.403 404.005 277.976 403.109C278.559 402.203 278.851 400.891 278.851 399.172C278.851 397.453 278.559 396.167 277.976 395.312C277.392 394.448 276.596 394.016 275.585 394.016ZM295.021 393.594C294.011 393.594 293.219 393.917 292.646 394.562C292.073 395.198 291.745 396.104 291.662 397.281H298.349C298.328 396.104 298.021 395.198 297.427 394.562C296.834 393.917 296.032 393.594 295.021 393.594ZM295.693 408.312C292.881 408.312 290.683 407.536 289.099 405.984C287.516 404.432 286.724 402.234 286.724 399.391C286.724 396.464 287.453 394.203 288.912 392.609C290.381 391.005 292.407 390.203 294.99 390.203C297.459 390.203 299.381 390.906 300.756 392.312C302.131 393.719 302.818 395.661 302.818 398.141V400.453H291.552C291.605 401.807 292.006 402.865 292.756 403.625C293.506 404.385 294.558 404.766 295.912 404.766C296.964 404.766 297.959 404.656 298.896 404.438C299.834 404.219 300.813 403.87 301.834 403.391V407.078C301 407.495 300.11 407.802 299.162 408C298.214 408.208 297.058 408.312 295.693 408.312ZM311.598 408H306.832V383.688H311.598V408ZM320.549 399.234C320.549 400.964 320.831 402.271 321.393 403.156C321.966 404.042 322.893 404.484 324.174 404.484C325.445 404.484 326.357 404.047 326.909 403.172C327.471 402.286 327.753 400.974 327.753 399.234C327.753 397.505 327.471 396.208 326.909 395.344C326.346 394.479 325.424 394.047 324.143 394.047C322.872 394.047 321.956 394.479 321.393 395.344C320.831 396.198 320.549 397.495 320.549 399.234ZM332.628 399.234C332.628 402.078 331.878 404.302 330.378 405.906C328.878 407.51 326.789 408.312 324.112 408.312C322.435 408.312 320.956 407.948 319.674 407.219C318.393 406.479 317.409 405.422 316.721 404.047C316.034 402.672 315.69 401.068 315.69 399.234C315.69 396.38 316.435 394.161 317.924 392.578C319.414 390.995 321.508 390.203 324.206 390.203C325.883 390.203 327.362 390.568 328.643 391.297C329.924 392.026 330.909 393.073 331.596 394.438C332.284 395.802 332.628 397.401 332.628 399.234ZM351.064 408L349.72 401.891L347.907 394.172H347.798L344.61 408H339.485L334.517 390.531H339.267L341.282 398.266C341.605 399.651 341.933 401.562 342.267 404H342.36C342.402 403.208 342.584 401.953 342.907 400.234L343.157 398.906L345.314 390.531H350.564L352.61 398.906C352.652 399.135 352.715 399.474 352.798 399.922C352.892 400.37 352.98 400.849 353.064 401.359C353.147 401.859 353.22 402.354 353.282 402.844C353.355 403.323 353.397 403.708 353.407 404H353.501C353.595 403.25 353.762 402.224 354.001 400.922C354.241 399.609 354.413 398.724 354.517 398.266L356.61 390.531H361.282L356.251 408H351.064ZM368.921 404.641C368.38 406.745 367.463 409.24 366.171 412.125H362.734C363.411 409.354 363.937 406.74 364.312 404.281H368.687L368.921 404.641ZM394.309 402.812C394.309 404.604 393.684 405.969 392.434 406.906C391.194 407.844 389.335 408.312 386.856 408.312C385.585 408.312 384.502 408.224 383.606 408.047C382.71 407.88 381.872 407.63 381.09 407.297V403.359C381.976 403.776 382.971 404.125 384.075 404.406C385.189 404.688 386.168 404.828 387.012 404.828C388.741 404.828 389.606 404.328 389.606 403.328C389.606 402.953 389.491 402.651 389.262 402.422C389.033 402.182 388.637 401.917 388.075 401.625C387.512 401.323 386.762 400.974 385.825 400.578C384.481 400.016 383.491 399.495 382.856 399.016C382.231 398.536 381.773 397.99 381.481 397.375C381.2 396.75 381.059 395.984 381.059 395.078C381.059 393.526 381.658 392.328 382.856 391.484C384.064 390.63 385.773 390.203 387.981 390.203C390.085 390.203 392.132 390.661 394.122 391.578L392.684 395.016C391.809 394.641 390.991 394.333 390.231 394.094C389.471 393.854 388.694 393.734 387.903 393.734C386.497 393.734 385.793 394.115 385.793 394.875C385.793 395.302 386.017 395.672 386.465 395.984C386.924 396.297 387.918 396.76 389.45 397.375C390.814 397.927 391.814 398.443 392.45 398.922C393.085 399.401 393.554 399.953 393.856 400.578C394.158 401.203 394.309 401.948 394.309 402.812ZM405.526 404.516C406.36 404.516 407.36 404.333 408.526 403.969V407.516C407.339 408.047 405.881 408.312 404.151 408.312C402.245 408.312 400.854 407.833 399.979 406.875C399.115 405.906 398.683 404.458 398.683 402.531V394.109H396.401V392.094L399.026 390.5L400.401 386.812H403.448V390.531H408.339V394.109H403.448V402.531C403.448 403.208 403.636 403.708 404.011 404.031C404.396 404.354 404.901 404.516 405.526 404.516ZM423.306 408L422.384 405.625H422.259C421.457 406.635 420.629 407.339 419.775 407.734C418.931 408.12 417.827 408.312 416.462 408.312C414.785 408.312 413.462 407.833 412.494 406.875C411.535 405.917 411.056 404.552 411.056 402.781C411.056 400.927 411.702 399.562 412.994 398.688C414.296 397.802 416.254 397.312 418.869 397.219L421.9 397.125V396.359C421.9 394.589 420.994 393.703 419.181 393.703C417.785 393.703 416.145 394.125 414.259 394.969L412.681 391.75C414.692 390.698 416.921 390.172 419.369 390.172C421.712 390.172 423.509 390.682 424.759 391.703C426.009 392.724 426.634 394.276 426.634 396.359V408H423.306ZM421.9 399.906L420.056 399.969C418.671 400.01 417.639 400.26 416.962 400.719C416.285 401.177 415.947 401.875 415.947 402.812C415.947 404.156 416.718 404.828 418.259 404.828C419.363 404.828 420.244 404.51 420.9 403.875C421.567 403.24 421.9 402.396 421.9 401.344V399.906ZM441.445 390.203C442.091 390.203 442.628 390.25 443.055 390.344L442.695 394.812C442.31 394.708 441.841 394.656 441.289 394.656C439.768 394.656 438.581 395.047 437.727 395.828C436.883 396.609 436.461 397.703 436.461 399.109V408H431.695V390.531H435.305L436.008 393.469H436.242C436.784 392.49 437.513 391.703 438.43 391.109C439.357 390.505 440.362 390.203 441.445 390.203ZM453.725 404.516C454.558 404.516 455.558 404.333 456.725 403.969V407.516C455.537 408.047 454.079 408.312 452.35 408.312C450.444 408.312 449.053 407.833 448.178 406.875C447.314 405.906 446.881 404.458 446.881 402.531V394.109H444.6V392.094L447.225 390.5L448.6 386.812H451.647V390.531H456.537V394.109H451.647V402.531C451.647 403.208 451.834 403.708 452.209 404.031C452.595 404.354 453.1 404.516 453.725 404.516ZM84.9852 451H80.2196V440.797C80.2196 439.536 80.006 438.594 79.5789 437.969C79.1623 437.333 78.5008 437.016 77.5946 437.016C76.3758 437.016 75.4904 437.464 74.9383 438.359C74.3862 439.255 74.1102 440.729 74.1102 442.781V451H69.3446V433.531H72.9852L73.6258 435.766H73.8914C74.3602 434.964 75.0373 434.339 75.9227 433.891C76.8081 433.432 77.8237 433.203 78.9696 433.203C81.5842 433.203 83.355 434.057 84.2821 435.766H84.7039C85.1727 434.953 85.8602 434.323 86.7664 433.875C87.6831 433.427 88.7144 433.203 89.8602 433.203C91.8394 433.203 93.3342 433.714 94.3446 434.734C95.3654 435.745 95.8758 437.37 95.8758 439.609V451H91.0946V440.797C91.0946 439.536 90.881 438.594 90.4539 437.969C90.0373 437.333 89.3758 437.016 88.4696 437.016C87.3029 437.016 86.4279 437.432 85.8446 438.266C85.2717 439.099 84.9852 440.422 84.9852 442.234V451ZM112.015 451L111.093 448.625H110.968C110.166 449.635 109.338 450.339 108.484 450.734C107.64 451.12 106.536 451.312 105.171 451.312C103.494 451.312 102.171 450.833 101.202 449.875C100.244 448.917 99.765 447.552 99.765 445.781C99.765 443.927 100.411 442.562 101.702 441.688C103.005 440.802 104.963 440.312 107.577 440.219L110.609 440.125V439.359C110.609 437.589 109.702 436.703 107.89 436.703C106.494 436.703 104.853 437.125 102.968 437.969L101.39 434.75C103.4 433.698 105.63 433.172 108.077 433.172C110.421 433.172 112.218 433.682 113.468 434.703C114.718 435.724 115.343 437.276 115.343 439.359V451H112.015ZM110.609 442.906L108.765 442.969C107.38 443.01 106.348 443.26 105.671 443.719C104.994 444.177 104.656 444.875 104.656 445.812C104.656 447.156 105.426 447.828 106.968 447.828C108.072 447.828 108.952 447.51 109.609 446.875C110.275 446.24 110.609 445.396 110.609 444.344V442.906ZM124.982 441.5L127.06 438.844L131.951 433.531H137.326L130.388 441.109L137.748 451H132.248L127.217 443.922L125.17 445.562V451H120.404V426.688H125.17V437.531L124.92 441.5H124.982ZM140.184 429.016C140.184 427.464 141.048 426.688 142.778 426.688C144.507 426.688 145.371 427.464 145.371 429.016C145.371 429.755 145.153 430.333 144.715 430.75C144.288 431.156 143.642 431.359 142.778 431.359C141.048 431.359 140.184 430.578 140.184 429.016ZM145.153 451H140.387V433.531H145.153V451ZM166.432 451H161.667V440.797C161.667 439.536 161.443 438.594 160.995 437.969C160.547 437.333 159.833 437.016 158.854 437.016C157.521 437.016 156.557 437.464 155.964 438.359C155.37 439.245 155.073 440.719 155.073 442.781V451H150.307V433.531H153.948L154.589 435.766H154.854C155.385 434.922 156.115 434.286 157.042 433.859C157.979 433.422 159.042 433.203 160.229 433.203C162.26 433.203 163.802 433.755 164.854 434.859C165.906 435.953 166.432 437.536 166.432 439.609V451ZM186.681 433.531V435.953L183.946 436.656C184.446 437.438 184.696 438.312 184.696 439.281C184.696 441.156 184.04 442.62 182.728 443.672C181.426 444.714 179.613 445.234 177.29 445.234L176.431 445.188L175.728 445.109C175.238 445.484 174.993 445.901 174.993 446.359C174.993 447.047 175.868 447.391 177.618 447.391H180.587C182.504 447.391 183.962 447.802 184.962 448.625C185.973 449.448 186.478 450.656 186.478 452.25C186.478 454.292 185.624 455.875 183.915 457C182.217 458.125 179.775 458.688 176.587 458.688C174.15 458.688 172.285 458.26 170.993 457.406C169.712 456.562 169.071 455.375 169.071 453.844C169.071 452.792 169.4 451.911 170.056 451.203C170.712 450.495 171.676 449.99 172.946 449.688C172.457 449.479 172.03 449.141 171.665 448.672C171.301 448.193 171.118 447.688 171.118 447.156C171.118 446.49 171.311 445.938 171.696 445.5C172.082 445.052 172.639 444.615 173.368 444.188C172.452 443.792 171.723 443.156 171.181 442.281C170.65 441.406 170.384 440.375 170.384 439.188C170.384 437.281 171.004 435.807 172.243 434.766C173.483 433.724 175.254 433.203 177.556 433.203C178.045 433.203 178.624 433.25 179.29 433.344C179.967 433.427 180.4 433.49 180.587 433.531H186.681ZM173.196 453.469C173.196 454.125 173.509 454.641 174.134 455.016C174.769 455.391 175.655 455.578 176.79 455.578C178.499 455.578 179.837 455.344 180.806 454.875C181.775 454.406 182.259 453.766 182.259 452.953C182.259 452.297 181.973 451.844 181.4 451.594C180.827 451.344 179.941 451.219 178.743 451.219H176.275C175.4 451.219 174.665 451.422 174.071 451.828C173.488 452.245 173.196 452.792 173.196 453.469ZM174.931 439.25C174.931 440.198 175.144 440.948 175.571 441.5C176.009 442.052 176.67 442.328 177.556 442.328C178.452 442.328 179.108 442.052 179.525 441.5C179.941 440.948 180.15 440.198 180.15 439.25C180.15 437.146 179.285 436.094 177.556 436.094C175.806 436.094 174.931 437.146 174.931 439.25ZM195.662 433.531H200.881L204.178 443.359C204.459 444.214 204.652 445.224 204.756 446.391H204.85C204.964 445.318 205.188 444.307 205.522 443.359L208.756 433.531H213.865L206.475 453.234C205.798 455.057 204.829 456.422 203.568 457.328C202.318 458.234 200.855 458.688 199.178 458.688C198.355 458.688 197.548 458.599 196.756 458.422V454.641C197.329 454.776 197.954 454.844 198.631 454.844C199.475 454.844 200.209 454.583 200.834 454.062C201.47 453.552 201.964 452.776 202.318 451.734L202.6 450.875L195.662 433.531ZM220.317 442.234C220.317 443.964 220.598 445.271 221.161 446.156C221.734 447.042 222.661 447.484 223.942 447.484C225.213 447.484 226.124 447.047 226.676 446.172C227.239 445.286 227.52 443.974 227.52 442.234C227.52 440.505 227.239 439.208 226.676 438.344C226.114 437.479 225.192 437.047 223.911 437.047C222.64 437.047 221.723 437.479 221.161 438.344C220.598 439.198 220.317 440.495 220.317 442.234ZM232.395 442.234C232.395 445.078 231.645 447.302 230.145 448.906C228.645 450.51 226.557 451.312 223.879 451.312C222.202 451.312 220.723 450.948 219.442 450.219C218.161 449.479 217.176 448.422 216.489 447.047C215.801 445.672 215.458 444.068 215.458 442.234C215.458 439.38 216.202 437.161 217.692 435.578C219.182 433.995 221.275 433.203 223.973 433.203C225.65 433.203 227.129 433.568 228.411 434.297C229.692 435.026 230.676 436.073 231.364 437.438C232.051 438.802 232.395 440.401 232.395 442.234ZM248.847 451L248.206 448.766H247.956C247.446 449.578 246.722 450.208 245.784 450.656C244.847 451.094 243.779 451.312 242.581 451.312C240.529 451.312 238.982 450.766 237.94 449.672C236.899 448.568 236.378 446.984 236.378 444.922V433.531H241.144V443.734C241.144 444.995 241.368 445.943 241.815 446.578C242.263 447.203 242.977 447.516 243.956 447.516C245.289 447.516 246.253 447.073 246.847 446.188C247.44 445.292 247.737 443.812 247.737 441.75V433.531H252.503V451H248.847ZM267.392 433.203C268.038 433.203 268.574 433.25 269.001 433.344L268.642 437.812C268.257 437.708 267.788 437.656 267.236 437.656C265.715 437.656 264.528 438.047 263.673 438.828C262.83 439.609 262.408 440.703 262.408 442.109V451H257.642V433.531H261.251L261.955 436.469H262.189C262.731 435.49 263.46 434.703 264.376 434.109C265.304 433.505 266.309 433.203 267.392 433.203ZM284.92 451L278.264 433.531H283.249L286.624 443.484C286.999 444.745 287.233 445.938 287.327 447.062H287.42C287.472 446.062 287.707 444.87 288.124 443.484L291.483 433.531H296.467L289.811 451H284.92ZM303.888 451H299.122V426.688H303.888V451ZM312.839 442.234C312.839 443.964 313.121 445.271 313.683 446.156C314.256 447.042 315.183 447.484 316.464 447.484C317.735 447.484 318.647 447.047 319.199 446.172C319.761 445.286 320.042 443.974 320.042 442.234C320.042 440.505 319.761 439.208 319.199 438.344C318.636 437.479 317.714 437.047 316.433 437.047C315.162 437.047 314.246 437.479 313.683 438.344C313.121 439.198 312.839 440.495 312.839 442.234ZM324.917 442.234C324.917 445.078 324.167 447.302 322.667 448.906C321.167 450.51 319.079 451.312 316.402 451.312C314.725 451.312 313.246 450.948 311.964 450.219C310.683 449.479 309.699 448.422 309.011 447.047C308.324 445.672 307.98 444.068 307.98 442.234C307.98 439.38 308.725 437.161 310.214 435.578C311.704 433.995 313.798 433.203 316.496 433.203C318.173 433.203 319.652 433.568 320.933 434.297C322.214 435.026 323.199 436.073 323.886 437.438C324.574 438.802 324.917 440.401 324.917 442.234ZM344.197 433.531V435.953L341.463 436.656C341.963 437.438 342.213 438.312 342.213 439.281C342.213 441.156 341.557 442.62 340.244 443.672C338.942 444.714 337.129 445.234 334.807 445.234L333.947 445.188L333.244 445.109C332.754 445.484 332.51 445.901 332.51 446.359C332.51 447.047 333.385 447.391 335.135 447.391H338.103C340.02 447.391 341.478 447.802 342.478 448.625C343.489 449.448 343.994 450.656 343.994 452.25C343.994 454.292 343.14 455.875 341.432 457C339.734 458.125 337.291 458.688 334.103 458.688C331.666 458.688 329.801 458.26 328.51 457.406C327.228 456.562 326.588 455.375 326.588 453.844C326.588 452.792 326.916 451.911 327.572 451.203C328.228 450.495 329.192 449.99 330.463 449.688C329.973 449.479 329.546 449.141 329.182 448.672C328.817 448.193 328.635 447.688 328.635 447.156C328.635 446.49 328.827 445.938 329.213 445.5C329.598 445.052 330.155 444.615 330.885 444.188C329.968 443.792 329.239 443.156 328.697 442.281C328.166 441.406 327.9 440.375 327.9 439.188C327.9 437.281 328.52 435.807 329.76 434.766C330.999 433.724 332.77 433.203 335.072 433.203C335.562 433.203 336.14 433.25 336.807 433.344C337.484 433.427 337.916 433.49 338.103 433.531H344.197ZM330.713 453.469C330.713 454.125 331.025 454.641 331.65 455.016C332.286 455.391 333.171 455.578 334.307 455.578C336.015 455.578 337.353 455.344 338.322 454.875C339.291 454.406 339.775 453.766 339.775 452.953C339.775 452.297 339.489 451.844 338.916 451.594C338.343 451.344 337.458 451.219 336.26 451.219H333.791C332.916 451.219 332.182 451.422 331.588 451.828C331.004 452.245 330.713 452.792 330.713 453.469ZM332.447 439.25C332.447 440.198 332.661 440.948 333.088 441.5C333.525 442.052 334.187 442.328 335.072 442.328C335.968 442.328 336.624 442.052 337.041 441.5C337.458 440.948 337.666 440.198 337.666 439.25C337.666 437.146 336.801 436.094 335.072 436.094C333.322 436.094 332.447 437.146 332.447 439.25ZM359.414 445.812C359.414 447.604 358.789 448.969 357.539 449.906C356.3 450.844 354.44 451.312 351.961 451.312C350.69 451.312 349.607 451.224 348.711 451.047C347.815 450.88 346.977 450.63 346.196 450.297V446.359C347.081 446.776 348.076 447.125 349.18 447.406C350.295 447.688 351.274 447.828 352.118 447.828C353.847 447.828 354.711 447.328 354.711 446.328C354.711 445.953 354.597 445.651 354.368 445.422C354.138 445.182 353.743 444.917 353.18 444.625C352.618 444.323 351.868 443.974 350.93 443.578C349.586 443.016 348.597 442.495 347.961 442.016C347.336 441.536 346.878 440.99 346.586 440.375C346.305 439.75 346.164 438.984 346.164 438.078C346.164 436.526 346.763 435.328 347.961 434.484C349.17 433.63 350.878 433.203 353.086 433.203C355.19 433.203 357.237 433.661 359.227 434.578L357.789 438.016C356.914 437.641 356.097 437.333 355.336 437.094C354.576 436.854 353.8 436.734 353.008 436.734C351.602 436.734 350.899 437.115 350.899 437.875C350.899 438.302 351.123 438.672 351.571 438.984C352.029 439.297 353.024 439.76 354.555 440.375C355.92 440.927 356.92 441.443 357.555 441.922C358.19 442.401 358.659 442.953 358.961 443.578C359.263 444.203 359.414 444.948 359.414 445.812ZM387.849 451H383.083V440.797C383.083 439.536 382.859 438.594 382.411 437.969C381.963 437.333 381.25 437.016 380.271 437.016C378.937 437.016 377.974 437.464 377.38 438.359C376.786 439.245 376.49 440.719 376.49 442.781V451H371.724V433.531H375.365L376.005 435.766H376.271C376.802 434.922 377.531 434.286 378.458 433.859C379.396 433.422 380.458 433.203 381.646 433.203C383.677 433.203 385.219 433.755 386.271 434.859C387.323 435.953 387.849 437.536 387.849 439.609V451ZM396.691 442.234C396.691 443.964 396.972 445.271 397.535 446.156C398.108 447.042 399.035 447.484 400.316 447.484C401.587 447.484 402.498 447.047 403.051 446.172C403.613 445.286 403.894 443.974 403.894 442.234C403.894 440.505 403.613 439.208 403.051 438.344C402.488 437.479 401.566 437.047 400.285 437.047C399.014 437.047 398.097 437.479 397.535 438.344C396.972 439.198 396.691 440.495 396.691 442.234ZM408.769 442.234C408.769 445.078 408.019 447.302 406.519 448.906C405.019 450.51 402.931 451.312 400.254 451.312C398.577 451.312 397.097 450.948 395.816 450.219C394.535 449.479 393.551 448.422 392.863 447.047C392.176 445.672 391.832 444.068 391.832 442.234C391.832 439.38 392.577 437.161 394.066 435.578C395.556 433.995 397.649 433.203 400.347 433.203C402.024 433.203 403.504 433.568 404.785 434.297C406.066 435.026 407.051 436.073 407.738 437.438C408.426 438.802 408.769 440.401 408.769 442.234ZM427.205 451L425.862 444.891L424.049 437.172H423.94L420.752 451H415.627L410.658 433.531H415.408L417.424 441.266C417.747 442.651 418.075 444.562 418.408 447H418.502C418.544 446.208 418.726 444.953 419.049 443.234L419.299 441.906L421.455 433.531H426.705L428.752 441.906C428.794 442.135 428.856 442.474 428.94 442.922C429.033 443.37 429.122 443.849 429.205 444.359C429.289 444.859 429.362 445.354 429.424 445.844C429.497 446.323 429.539 446.708 429.549 447H429.643C429.737 446.25 429.903 445.224 430.143 443.922C430.382 442.609 430.554 441.724 430.658 441.266L432.752 433.531H437.424L432.393 451H427.205ZM439.719 448.766C439.719 447.891 439.954 447.229 440.423 446.781C440.891 446.333 441.574 446.109 442.469 446.109C443.334 446.109 444.001 446.339 444.469 446.797C444.949 447.255 445.188 447.911 445.188 448.766C445.188 449.589 444.949 450.24 444.469 450.719C443.99 451.188 443.324 451.422 442.469 451.422C441.594 451.422 440.917 451.193 440.438 450.734C439.959 450.266 439.719 449.609 439.719 448.766Z" fill="#C4C4C4"/>
</svg>
