<svg width="45" height="35" viewBox="0 0 45 35" fill="none" xmlns="http://www.w3.org/2000/svg">
<path fill-rule="evenodd" clip-rule="evenodd" d="M22.72 9.40002C17.1971 9.40002 12.72 13.8772 12.72 19.4C12.72 24.9229 17.1971 29.4 22.72 29.4C28.2428 29.4 32.72 24.9229 32.72 19.4C32.72 13.8772 28.2428 9.40002 22.72 9.40002V9.40002ZM22.72 26.4C18.854 26.4 15.72 23.266 15.72 19.4C15.72 15.534 18.854 12.4 22.72 12.4C26.586 12.4 29.72 15.534 29.72 19.4C29.72 23.266 26.586 26.4 22.72 26.4Z" fill="#CE6CB1"/>
<path fill-rule="evenodd" clip-rule="evenodd" d="M41.72 6.40002H34.33L31.22 1.74002C30.6638 0.902732 29.7252 0.399649 28.72 0.400025H16.72C15.7148 0.399649 14.7762 0.902732 14.22 1.74002L11.11 6.40002H10.72V5.40002C10.72 3.74317 9.37683 2.40002 7.71997 2.40002H6.71997C5.06312 2.40002 3.71997 3.74317 3.71997 5.40002V6.40002C2.06312 6.40002 0.719971 7.74317 0.719971 9.40002V31.4C0.719971 33.0569 2.06312 34.4 3.71997 34.4H41.72C43.3768 34.4 44.72 33.0569 44.72 31.4V9.40002C44.72 7.74317 43.3768 6.40002 41.72 6.40002ZM6.71997 5.40002H7.71997V6.40002H6.71997V5.40002ZM41.72 31.4H3.71997V9.40002H12.72L16.72 3.40002H28.72L32.72 9.40002H41.72V31.4Z" fill="#CE6CB1"/>
<path fill-rule="evenodd" clip-rule="evenodd" d="M36.22 15.4C37.0484 15.4 37.72 14.7285 37.72 13.9C37.72 13.0716 37.0484 12.4 36.22 12.4C35.3915 12.4 34.72 13.0716 34.72 13.9C34.72 14.7285 35.3915 15.4 36.22 15.4Z" fill="#CE6CB1"/>
</svg>
