<svg width="34" height="38" viewBox="0 0 34 38" fill="none" xmlns="http://www.w3.org/2000/svg">
<path fill-rule="evenodd" clip-rule="evenodd" d="M33.28 17.73L29.04 13.49C28.449 12.9393 27.528 12.9555 26.9568 13.5267C26.3856 14.098 26.3693 15.019 26.92 15.61L28.71 17.4H1.71002C0.881595 17.4 0.210022 18.0716 0.210022 18.9C0.210022 19.7284 0.881595 20.4 1.71002 20.4H28.48L26.91 21.97C26.5087 22.3439 26.3435 22.9071 26.4792 23.4386C26.615 23.97 27.03 24.385 27.5614 24.5208C28.0929 24.6565 28.6561 24.4913 29.03 24.09L33.27 19.85C33.8577 19.2671 33.8622 18.3184 33.28 17.73Z" fill="#CE6CB1"/>
<path fill-rule="evenodd" clip-rule="evenodd" d="M33.28 30.73L29.04 26.49C28.449 25.9393 27.528 25.9555 26.9568 26.5267C26.3856 27.098 26.3693 28.019 26.92 28.61L28.71 30.4H1.71002C0.881595 30.4 0.210022 31.0716 0.210022 31.9C0.210022 32.7284 0.881595 33.4 1.71002 33.4H28.48L26.91 34.97C26.5087 35.3439 26.3435 35.9071 26.4792 36.4386C26.615 36.97 27.03 37.385 27.5614 37.5208C28.0929 37.6565 28.6561 37.4913 29.03 37.09L33.27 32.85C33.8577 32.2671 33.8622 31.3184 33.28 30.73Z" fill="#CE6CB1"/>
<path fill-rule="evenodd" clip-rule="evenodd" d="M33.28 4.72999L29.04 0.489987C28.449 -0.0607306 27.528 -0.0444807 26.9568 0.526744C26.3856 1.09797 26.3693 2.01897 26.92 2.60999L28.71 4.39999H1.71002C0.881595 4.39999 0.210022 5.07156 0.210022 5.89999C0.210022 6.72841 0.881595 7.39999 1.71002 7.39999H28.48L26.91 8.96999C26.5087 9.34393 26.3435 9.9071 26.4792 10.4386C26.615 10.97 27.03 11.385 27.5614 11.5208C28.0929 11.6565 28.6561 11.4913 29.03 11.09L33.27 6.84999C33.8577 6.26711 33.8622 5.31838 33.28 4.72999Z" fill="#CE6CB1"/>
</svg>
