<svg width="262" height="229" viewBox="0 0 262 229" fill="none" xmlns="http://www.w3.org/2000/svg">
<mask id="path-1-inside-1" fill="white">
<path fill-rule="evenodd" clip-rule="evenodd" d="M48.5577 59C45.244 59 42.5577 61.6863 42.5577 65V73H37C30.3726 73 25 78.3726 25 85V215C25 221.627 30.3726 227 37 227H229C235.627 227 241 221.627 241 215V85C241 78.3726 235.627 73 229 73H117.441V65C117.441 61.6863 114.754 59 111.441 59H48.5577Z"/>
</mask>
<path fill-rule="evenodd" clip-rule="evenodd" d="M48.5577 59C45.244 59 42.5577 61.6863 42.5577 65V73H37C30.3726 73 25 78.3726 25 85V215C25 221.627 30.3726 227 37 227H229C235.627 227 241 221.627 241 215V85C241 78.3726 235.627 73 229 73H117.441V65C117.441 61.6863 114.754 59 111.441 59H48.5577Z" fill="#F0F3F5"/>
<path d="M42.5577 73V77H46.5577V73H42.5577ZM117.441 73H113.441V77H117.441V73ZM46.5577 65C46.5577 63.8954 47.4531 63 48.5577 63V55C43.0348 55 38.5577 59.4771 38.5577 65H46.5577ZM46.5577 73V65H38.5577V73H46.5577ZM37 77H42.5577V69H37V77ZM29 85C29 80.5817 32.5817 77 37 77V69C28.1635 69 21 76.1634 21 85H29ZM29 215V85H21V215H29ZM37 223C32.5817 223 29 219.418 29 215H21C21 223.837 28.1635 231 37 231V223ZM229 223H37V231H229V223ZM237 215C237 219.418 233.418 223 229 223V231C237.837 231 245 223.837 245 215H237ZM237 85V215H245V85H237ZM229 77C233.418 77 237 80.5817 237 85H245C245 76.1634 237.837 69 229 69V77ZM117.441 77H229V69H117.441V77ZM113.441 65V73H121.441V65H113.441ZM111.441 63C112.545 63 113.441 63.8954 113.441 65H121.441C121.441 59.4771 116.964 55 111.441 55V63ZM48.5577 63H111.441V55H48.5577V63Z" fill="#848A8A" mask="url(#path-1-inside-1)"/>
<rect x="3.31691" y="59.1965" width="128" height="86" rx="10" transform="rotate(-10 3.31691 59.1965)" fill="white" stroke="#C4CACC" stroke-width="4"/>
<mask id="path-4-inside-2" fill="white">
<path d="M22.5989 54.6399C22.4071 53.5521 23.1334 52.5148 24.2212 52.323L39.9782 49.5446C41.0659 49.3528 42.1033 50.0792 42.2951 51.1669L22.5989 54.6399Z"/>
</mask>
<path d="M22.5989 54.6399C22.4071 53.5521 23.1334 52.5148 24.2212 52.323L39.9782 49.5446C41.0659 49.3528 42.1033 50.0792 42.2951 51.1669L22.5989 54.6399Z" fill="white"/>
<path d="M24.9158 56.2622L40.6727 53.4839L39.2836 45.6054L23.5266 48.3838L24.9158 56.2622ZM41.6005 47.2277L21.9043 50.7007L23.2935 58.5791L42.9897 55.1062L41.6005 47.2277ZM40.6727 53.4839C39.585 53.6757 38.5476 52.9493 38.3558 51.8615L46.2343 50.4723C45.6589 47.209 42.5469 45.03 39.2836 45.6054L40.6727 53.4839ZM23.5266 48.3838C20.2633 48.9592 18.0843 52.0711 18.6597 55.3345L26.5381 53.9453C26.73 55.0331 26.0036 56.0704 24.9158 56.2622L23.5266 48.3838Z" fill="#C4CACC" mask="url(#path-4-inside-2)"/>
<path d="M9.5823 87.7197L133.607 65.8507" stroke="#C4CACC" stroke-width="4" stroke-linecap="square"/>
<path fill-rule="evenodd" clip-rule="evenodd" d="M82.9705 114.438C96.024 112.137 104.74 99.6888 102.438 86.6354C100.137 73.5819 87.6888 64.8658 74.6354 67.1675C61.5819 69.4692 52.8659 81.917 55.1676 94.9705C57.4692 108.024 69.917 116.74 82.9705 114.438Z" fill="white" stroke="#C4CACC" stroke-width="4"/>
<path d="M93.4659 88.4363C94.9044 96.5947 89.4569 104.375 81.2985 105.813C73.1401 107.252 65.3602 101.804 63.9216 93.6457C62.4831 85.4873 67.9306 77.7074 76.089 76.2689C84.2474 74.8303 92.0273 80.2779 93.4659 88.4363Z" stroke="#E1E4E5" stroke-width="4"/>
<rect x="100.158" y="49.6314" width="20" height="14" rx="3" transform="rotate(-10 100.158 49.6314)" fill="#F0F3F5" stroke="#C4CACC" stroke-width="2"/>
<path fill-rule="evenodd" clip-rule="evenodd" d="M22.3284 75.573C24.504 75.1894 25.9567 73.1148 25.5731 70.9392C25.1894 68.7636 23.1148 67.311 20.9392 67.6946C18.7637 68.0782 17.311 70.1528 17.6946 72.3284C18.0782 74.504 20.1528 75.9566 22.3284 75.573Z" fill="#C4CACC"/>
<path fill-rule="evenodd" clip-rule="evenodd" d="M34.3284 73.573C36.504 73.1894 37.9567 71.1148 37.5731 68.9392C37.1894 66.7636 35.1148 65.311 32.9392 65.6946C30.7637 66.0782 29.311 68.1528 29.6946 70.3284C30.0782 72.504 32.1528 73.9566 34.3284 73.573Z" fill="#E1E4E5"/>
<path d="M173.168 156.297L216.569 162.396C216.698 162.414 217.085 162.376 217.626 161.957C218.141 161.557 218.622 160.932 218.9 160.189L227.171 138.094C227.522 137.157 228.185 136.382 228.726 135.83L168.81 127.409C169.177 128.091 169.597 129.016 169.676 130.014L171.536 153.532C171.598 154.315 171.888 155.05 172.274 155.579C172.68 156.136 173.042 156.279 173.168 156.297Z" fill="white" stroke="#848A8A" stroke-width="4"/>
<path fill-rule="evenodd" clip-rule="evenodd" d="M195.422 4.68199L238.822 10.7816C240.489 11.0159 241.987 13.0555 242.17 15.3689L244.031 38.8874C244.213 41.1867 247.85 44.3649 245.717 44.065L179.62 34.7757C177.491 34.4765 181.854 32.4368 182.668 30.2635L190.939 8.16892C191.748 6.00888 193.751 4.44727 195.422 4.68199Z" fill="white" stroke="#C4CACC" stroke-width="4"/>
<rect x="176.024" y="35.7766" width="72" height="88" rx="10" transform="rotate(8 176.024 35.7766)" fill="white"/>
<rect x="176.024" y="35.7766" width="72" height="88" rx="10" transform="rotate(8 176.024 35.7766)" stroke="#C4CACC" stroke-width="12"/>
<rect x="176.024" y="35.7766" width="72" height="88" rx="10" transform="rotate(8 176.024 35.7766)" stroke="white" stroke-width="12"/>
<rect x="176.024" y="35.7766" width="72" height="88" rx="10" transform="rotate(8 176.024 35.7766)" stroke="#C4CACC" stroke-width="12"/>
<path d="M191 14.9805C191.154 13.8867 192.359 13.1518 193.7 13.3403L238.37 19.6183C239.708 19.8063 240.668 20.8377 240.513 21.9392V21.9392" stroke="#C4CACC" stroke-width="2"/>
<path d="M189 20.9805C189.154 19.8867 190.402 19.1579 191.797 19.354L238.254 25.883C239.645 26.0785 240.649 27.1161 240.494 28.2175V28.2175" stroke="#C4CACC" stroke-width="2"/>
<path d="M185 26.9805C185.154 25.8867 186.488 25.17 187.991 25.3812L238.021 32.4125C239.519 32.623 240.61 33.6728 240.455 34.7742V34.7742" stroke="#C4CACC" stroke-width="2"/>
<path d="M221.73 155.043C221.576 156.137 220.328 156.866 218.933 156.669L172.476 150.14C171.085 149.945 170.081 148.907 170.236 147.806V147.806" stroke="#848A8A" stroke-width="2"/>
<path d="M222.843 147.121C222.69 148.215 221.442 148.943 220.046 148.747L173.59 142.218C172.199 142.023 171.195 140.985 171.349 139.884V139.884" stroke="#848A8A" stroke-width="2"/>
<path d="M225.937 139.477C225.784 140.571 224.449 141.287 222.947 141.076L172.916 134.045C171.418 133.834 170.327 132.785 170.482 131.683V131.683" stroke="#848A8A" stroke-width="2"/>
<rect x="5" y="105" width="254.534" height="122" rx="10" fill="white" stroke="#4A5050" stroke-width="4"/>
<path fill-rule="evenodd" clip-rule="evenodd" d="M132 182.226L113.779 193.08L118.47 172.396L102.517 158.42L123.638 156.491L132 137L140.362 156.491L161.483 158.42L145.53 172.396L150.221 193.08L132 182.226Z" fill="#E1E4E5"/>
</svg>
