<svg width="44" height="41" viewBox="0 0 44 41" fill="none" xmlns="http://www.w3.org/2000/svg">
<path fill-rule="evenodd" clip-rule="evenodd" d="M42.9385 16.7151L23.9529 0.711826C22.8262 -0.237275 21.1738 -0.237275 20.0471 0.711826L1.06153 16.7151C0.118723 17.5132 -0.237993 18.8024 0.161677 19.9673C0.561346 21.1321 1.63636 21.9364 2.87351 21.9961V37.9994C2.87351 39.6566 4.2256 41 5.89349 41H38.1065C39.7744 41 41.1265 39.6566 41.1265 37.9994V22.0061C42.3636 21.9464 43.4387 21.1421 43.8383 19.9773C44.238 18.8124 43.8813 17.5232 42.9385 16.7251V16.7151ZM21 38H19V29H25V38H21ZM38.1188 19V38H28.0445V29C28.0445 27.3431 26.6914 26 25.0223 26H18.9777C17.3086 26 15.9555 27.3431 15.9555 29V38H5.88123V19H3L22 3L41 19H38.1188Z" fill="#C14C9F"/>
</svg>
    