<svg width="43" height="35" viewBox="0 0 43 35" fill="none" xmlns="http://www.w3.org/2000/svg">
<path fill-rule="evenodd" clip-rule="evenodd" d="M32.66 3.40002C36.5591 3.40002 39.72 6.56089 39.72 10.46V24.35C39.72 28.2492 36.5591 31.41 32.66 31.41H10.78C6.88084 31.41 3.71997 28.2492 3.71997 24.35V10.46C3.71997 6.56089 6.88084 3.40002 10.78 3.40002H32.67H32.66ZM32.67 0.400024H10.78C5.22627 0.405537 0.725483 4.90633 0.719971 10.46V24.35C0.73099 29.8998 5.23017 34.3945 10.78 34.4H32.67C38.2237 34.3945 42.7245 29.8937 42.73 24.34V10.45C42.7189 4.89633 38.2137 0.400013 32.66 0.400024H32.67Z" fill="#C4C4C4"/>
<path fill-rule="evenodd" clip-rule="evenodd" d="M18.72 12.4L26.72 17.4L18.72 22.4V12.4ZM18.72 9.40001C17.0631 9.40001 15.72 10.7432 15.72 12.4V22.4C15.7214 23.4899 16.3138 24.4932 17.2674 25.0209C18.221 25.5486 19.3858 25.5176 20.31 24.94L28.31 19.94C29.188 19.392 29.7216 18.4301 29.7216 17.395C29.7216 16.36 29.188 15.398 28.31 14.85L20.31 9.85001C19.8336 9.55061 19.2826 9.39121 18.72 9.39001V9.40001Z" fill="#C4C4C4"/>
</svg>
