<svg width="27" height="37" viewBox="0 0 27 37" fill="none" xmlns="http://www.w3.org/2000/svg">
<path fill-rule="evenodd" clip-rule="evenodd" d="M21.4154 25.9786L17.4681 29.7873V7.47625C17.4681 6.66094 16.797 6 15.9692 6C15.1413 6 14.4702 6.66094 14.4702 7.47625V32.4544L13.4709 33.4386L12.4716 32.4544V7.47625C12.4716 6.66094 11.8005 6 10.9727 6C10.1449 6 9.47375 6.66094 9.47375 7.47625V29.6004L5.56649 25.5259C4.99399 24.9539 4.0622 24.9376 3.46945 25.4892C2.8767 26.0409 2.84051 26.958 3.38802 27.5533L9.88346 34.3244C10.06 34.5039 10.2801 34.636 10.523 34.7082L12.4117 36.5683C12.9969 37.1439 13.945 37.1439 14.5302 36.5683L16.4289 34.6983C16.6493 34.6338 16.8512 34.5192 17.0185 34.3637L23.5139 28.0946C23.9176 27.7301 24.0874 27.1778 23.9566 26.654C23.8259 26.1302 23.4155 25.7183 22.8862 25.5797C22.3569 25.4411 21.793 25.5978 21.4154 25.9885V25.9786Z" fill="#CD62AE"/>
<path fill-rule="evenodd" clip-rule="evenodd" d="M25.5 0H1.5C0.671573 0 0 0.671573 0 1.5C0 2.32843 0.671573 3 1.5 3H25.5C26.3284 3 27 2.32843 27 1.5C27 0.671573 26.3284 0 25.5 0Z" fill="#CD62AE"/>
</svg>
