<svg width="26" height="44" viewBox="0 0 26 44" fill="none" xmlns="http://www.w3.org/2000/svg">
<path fill-rule="evenodd" clip-rule="evenodd" d="M26 7C26 3.13401 22.866 0 19 0H7C3.13401 0 0 3.13401 0 7V37C0 40.866 3.13401 44 7 44H19C22.866 44 26 40.866 26 37V7ZM3 9H23V33H3V9ZM7 3H19C20.9302 3.00591 22.5388 4.2386 23 6H3C3.46124 4.2386 5.06982 3.00591 7 3ZM19 41H7C4.79086 41 3 39.2091 3 37V36H23V37C23 39.2091 21.2091 41 19 41Z" fill="#CE6CB1"/>
<path fill-rule="evenodd" clip-rule="evenodd" d="M12.5 40C13.3284 40 14 39.3284 14 38.5C14 37.6716 13.3284 37 12.5 37C11.6716 37 11 37.6716 11 38.5C11 39.3284 11.6716 40 12.5 40Z" fill="#CE6CB1"/>
</svg>
