<svg width="83" height="77" viewBox="0 0 83 77" fill="none" xmlns="http://www.w3.org/2000/svg">
<path fill-rule="evenodd" clip-rule="evenodd" d="M41.4399 48.8C52.4599 48.8 61.4399 38.04 61.4399 24.8C61.4399 11.56 52.4599 0.799988 41.4399 0.799988C30.4199 0.799988 21.4399 11.56 21.4399 24.8C21.4399 38.04 30.4399 48.8 41.4399 48.8ZM41.4399 6.79999C49.1799 6.79999 55.4399 14.8 55.4399 24.8C55.4399 34.8 49.1799 42.8 41.4399 42.8C33.6999 42.8 27.4399 34.8 27.4399 24.8C27.4399 14.8 33.6999 6.79999 41.4399 6.79999Z" fill="#C14C9F"/>
<path fill-rule="evenodd" clip-rule="evenodd" d="M59.7399 46.8C58.0831 46.6343 56.6056 47.8431 56.4399 49.5C56.2743 51.1568 57.4831 52.6343 59.1399 52.8C68.444 53.8933 75.6522 61.4543 76.2999 70.8H6.57994C7.2889 61.4815 14.4659 53.9531 23.7399 52.8C25.3968 52.6343 26.6056 51.1568 26.4399 49.5C26.2743 47.8431 24.7968 46.6343 23.1399 46.8C22.9199 46.8 0.439941 49.36 0.439941 73.78C0.439941 75.4368 1.78309 76.78 3.43994 76.78H79.4399C81.0968 76.78 82.4399 75.4368 82.4399 73.78C82.4399 49.36 59.9599 46.8 59.7399 46.8Z" fill="#C14C9F"/>
</svg>
