<svg width="45" height="39" viewBox="0 0 45 39" fill="none" xmlns="http://www.w3.org/2000/svg">
<path fill-rule="evenodd" clip-rule="evenodd" d="M36.2701 12.48C35.0301 7.27002 31.2701 0.400024 22.7201 0.400024C16.1801 0.400024 12.9701 3.34002 11.4301 5.81002C10.8379 6.76224 10.3897 7.79675 10.1001 8.88002C6.00007 10.05 0.72007 13.37 0.72007 20.4C0.587663 25.5284 3.74867 30.1673 8.57007 31.92C10.844 32.8425 13.2667 33.344 15.7201 33.4H16.7201V30.4H15.7201C15.7201 30.4 3.72007 30.4 3.72007 20.4C3.72007 12.4 12.7201 11.4 12.7201 11.4C12.7201 11.4 12.7201 3.40002 22.7201 3.40002C32.7201 3.40002 33.7201 15.4 33.7201 15.4C33.9965 15.3846 34.2736 15.3846 34.5501 15.4C36.5501 15.4 41.7201 16.04 41.7201 22.4C41.7201 30.4 29.7201 30.4 29.7201 30.4H27.7201V33.4H29.7201C34.9101 33.4 44.7201 31.1 44.7201 22.4C44.7201 15.88 40.4801 13.06 36.2701 12.48Z" fill="#C4C4C4"/>
<path fill-rule="evenodd" clip-rule="evenodd" d="M27.8701 20.17C28.4426 20.6737 29.302 20.6676 29.8674 20.156C30.4328 19.6443 30.5243 18.7898 30.0801 18.17L24.0801 11.67C23.1795 11.1378 22.0607 11.1378 21.1601 11.67L14.6601 18.3C14.2631 18.6779 14.1039 19.2422 14.2448 19.7719C14.3856 20.3015 14.8041 20.7122 15.3363 20.843C15.8685 20.9738 16.4297 20.804 16.8001 20.4L20.7301 16.4V37.4C20.7301 38.2284 21.4017 38.9 22.2301 38.9C23.0585 38.9 23.7301 38.2284 23.7301 37.4V15.67L27.8701 20.17Z" fill="#C4C4C4"/>
</svg>
