<svg width="36" height="39" viewBox="0 0 36 39" fill="none" xmlns="http://www.w3.org/2000/svg">
<path fill-rule="evenodd" clip-rule="evenodd" d="M7.64706 13.6667C10.7658 13.6667 13.2941 11.055 13.2941 7.83333C13.2941 4.61167 10.7658 2 7.64706 2C4.52827 2 2 4.61167 2 7.83333C2 11.055 4.52827 13.6667 7.64706 13.6667Z" stroke="#CE6CB1" stroke-width="3.84" stroke-linecap="round" stroke-linejoin="round"/>
<path fill-rule="evenodd" clip-rule="evenodd" d="M7.64706 37C10.7658 37 13.2941 34.3884 13.2941 31.1667C13.2941 27.945 10.7658 25.3334 7.64706 25.3334C4.52827 25.3334 2 27.945 2 31.1667C2 34.3884 4.52827 37 7.64706 37Z" stroke="#CE6CB1" stroke-width="3.84" stroke-linecap="round" stroke-linejoin="round"/>
<path d="M34 3.94446L11.6377 27.0445" stroke="#CE6CB1" stroke-width="3.84" stroke-linecap="round" stroke-linejoin="round"/>
<path d="M23.5908 24.3223L34.0002 35.0556" stroke="#CE6CB1" stroke-width="3.84" stroke-linecap="round" stroke-linejoin="round"/>
<path d="M11.6377 11.9556L18.9412 19.5" stroke="#CE6CB1" stroke-width="3.84" stroke-linecap="round" stroke-linejoin="round"/>
</svg>
