<svg width="38" height="26" viewBox="0 0 38 26" fill="none" xmlns="http://www.w3.org/2000/svg">
<path fill-rule="evenodd" clip-rule="evenodd" d="M18.3594 0.5C22.474 0.5 26.1849 1.65884 29.4922 3.97656C32.7995 6.29428 35.1823 9.30206 36.6406 13C35.1823 16.6979 32.7995 19.7057 29.4922 22.0234C26.1849 24.3412 22.474 25.5 18.3594 25.5C14.2448 25.5 10.5209 24.3412 7.1875 22.0234C3.85415 19.7057 1.45834 16.6979 0 13C1.45834 9.30206 3.85415 6.29428 7.1875 3.97656C10.5209 1.65884 14.2448 0.5 18.3594 0.5ZM18.3594 21.3594C20.6511 21.3594 22.6042 20.5391 24.2188 18.8984C25.8333 17.2578 26.6406 15.2917 26.6406 13C26.6406 10.7083 25.8333 8.7422 24.2188 7.10156C22.6042 5.46093 20.6511 4.64062 18.3594 4.64062C16.0677 4.64062 14.1016 5.46093 12.4609 7.10156C10.8203 8.7422 10 10.7083 10 13C10 15.2917 10.8203 17.2578 12.4609 18.8984C14.1016 20.5391 16.0677 21.3594 18.3594 21.3594ZM18.3203 8C19.7005 8 20.8854 8.48177 21.875 9.44531C22.8646 10.4089 23.3594 11.5937 23.3594 13C23.3594 14.4063 22.8646 15.5911 21.875 16.5547C20.8854 17.5182 19.7005 18 18.3203 18C16.9401 18 15.7682 17.5182 14.8047 16.5547C13.8411 15.5911 13.3594 14.4063 13.3594 13C13.3594 11.5937 13.8411 10.4089 14.8047 9.44531C15.7682 8.48177 16.9401 8 18.3203 8Z" fill="#C6CBD4"/>
</svg>
