<svg width="89" height="127" viewBox="0 0 89 127" fill="none" xmlns="http://www.w3.org/2000/svg">
<path fill-rule="evenodd" clip-rule="evenodd" d="M75.4982 1.47205C75.3812 0.755981 76.2632 -0.0789795 77.2672 0.00598145C77.4752 0.113037 78.0072 0.225952 78.2662 0.553955C78.7522 1.17004 79.1162 1.89404 79.4702 2.604C83.5792 10.833 86.0802 19.566 87.3302 28.6429C87.4252 29.3333 87.5324 30.0237 87.6398 30.715C88.047 33.337 88.4561 35.9702 88.2012 38.653L88.1876 38.7965C87.7832 43.0435 87.3795 47.2842 86.5112 51.476C84.6042 60.691 80.8932 69.12 75.4712 76.771C71.1952 82.803 65.9702 87.99 60.3202 92.729C57.6292 94.985 54.8272 97.1331 51.9202 99.101C48.6412 101.321 45.2215 103.339 41.8094 105.352L41.7252 105.402C34.4122 109.717 26.6072 113.01 18.7932 116.277C17.9122 116.646 16.9902 116.935 16.0662 117.182C15.6212 117.3 15.0922 117.351 14.6662 117.22C14.2592 117.094 13.8582 116.751 13.5942 116.4C13.2562 115.948 13.4532 114.89 13.8872 114.66L14.2056 114.491C15.0792 114.028 15.9583 113.561 16.8802 113.218C23.4832 110.764 29.8562 107.756 36.0482 104.463C43.0922 100.717 49.9212 96.553 56.1693 91.499C62.0402 86.749 67.5142 81.6121 71.9342 75.4871C75.2992 70.825 78.4072 65.947 80.2542 60.438C81.3202 57.26 82.2422 54.0229 83.0102 50.761C84.4872 44.491 85.0732 38.106 84.2082 31.712C83.0492 23.145 81.3142 14.6949 77.4902 6.82898C76.9322 5.68005 76.4022 4.51294 75.9322 3.32495C75.7108 2.76746 75.6105 2.15625 75.5122 1.55737L75.4982 1.47205ZM18.3915 125.88C17.6562 125.944 16.921 126.008 16.1858 126.072C13.1468 126.074 10.1531 125.675 7.16234 125.275C5.55917 125.061 3.95682 124.847 2.34875 124.696C2.00624 124.663 1.6731 124.515 1.34279 124.369C1.22853 124.318 1.11461 124.268 1.00075 124.223C0.261749 123.927 -0.22525 122.918 0.105743 122.25C0.153885 122.154 0.201843 122.057 0.249878 121.959C0.624878 121.199 1.00401 120.431 1.50575 119.76C2.96402 117.815 4.30244 115.787 5.63985 113.76C6.58789 112.324 7.53542 110.889 8.52475 109.484C12.2108 104.251 15.7278 98.9196 18.9627 93.4065C19.2507 92.916 19.5417 92.4268 19.8329 91.9374C21.9082 88.4495 23.9889 84.9524 24.9738 80.9315C25.0807 80.4956 25.3737 80.0315 25.7158 79.7456C26.0447 79.4696 26.5698 79.2466 26.9778 79.2886C27.6288 79.3566 28.1638 79.7946 28.2638 80.5066C28.3297 80.9675 28.3018 81.4546 28.2368 81.9196C27.9008 84.3346 26.8748 86.4866 25.7548 88.6235C21.5938 96.5579 16.6003 103.963 11.6067 111.369C9.99368 113.76 8.38071 116.153 6.79575 118.562C6.36275 119.221 5.93675 119.893 5.60374 120.604C5.52574 120.771 5.77475 121.276 5.97975 121.356C6.56274 121.586 7.19275 121.731 7.81674 121.812C14.6277 122.706 21.4256 122.141 28.214 121.578L28.8718 121.524C36.8958 120.859 44.6728 119.213 51.7968 115.219C52.3408 114.914 52.9727 114.708 53.5877 114.602C54.2808 114.483 54.7857 114.913 55.1418 115.486C55.4427 115.972 55.3417 116.924 54.9128 117.241C54.2758 117.712 53.6258 118.176 52.9358 118.561C45.5258 122.708 37.4277 124.341 29.0778 125.03C27.9997 125.118 26.9211 125.196 25.8426 125.275C24.8502 125.347 23.8577 125.418 22.8658 125.499C21.3736 125.619 19.8824 125.75 18.3915 125.88Z" fill="#D9D8DB"/>
</svg>
