<?xml version="1.0" encoding="utf-8"?>
<!-- Generator: Adobe Illustrator 22.1.0, SVG Export Plug-In . SVG Version: 6.00 Build 0)  -->
<svg version="1.0" id="Layer_1" xmlns="http://www.w3.org/2000/svg" xmlns:xlink="http://www.w3.org/1999/xlink" x="0px" y="0px"
	 viewBox="0 0 89 127" style="enable-background:new 0 0 89 127;" xml:space="preserve">
<style type="text/css">
	.st0{fill:#D9D8DB;}
</style>
<path class="st0" d="M55.3,111.6c-0.4,0.6-0.7,1.3-1.1,1.9c-1.8,2.5-3.8,4.7-5.9,6.9c-1.1,1.2-2.2,2.4-3.3,3.6
	c-0.2,0.3-0.5,0.4-0.8,0.6c-0.1,0.1-0.2,0.1-0.3,0.2c-0.7,0.4-1.8,0.2-2.1-0.4c-0.1-0.1-0.1-0.2-0.2-0.3c-0.4-0.7-0.8-1.5-1.1-2.3
	c-0.7-2.3-1.6-4.6-2.5-6.8c-0.6-1.6-1.2-3.2-1.8-4.8c-2.1-6-4.5-12-7.1-17.8c-0.2-0.5-0.5-1-0.7-1.6c-1.6-3.7-3.3-7.4-6-10.6
	c-0.3-0.3-0.5-0.8-0.5-1.3c0-0.4,0.1-1,0.4-1.3c0.4-0.5,1.1-0.7,1.7-0.3c0.4,0.2,0.8,0.5,1.1,0.8c1.8,1.7,2.9,3.7,4,5.9
	c4.1,8,7.2,16.3,10.4,24.7c1,2.7,2,5.4,3.1,8.1c0.3,0.7,0.6,1.5,1,2.2c0.1,0.2,0.6,0.2,0.8,0.1c0.5-0.3,1-0.8,1.4-1.2
	c4.7-5,8.1-10.9,11.6-16.8l0.3-0.6c4.1-6.9,7.2-14.2,8.1-22.4c0.1-0.6,0.3-1.3,0.5-1.8c0.3-0.6,0.9-0.8,1.6-0.8
	c0.6,0,1.3,0.7,1.3,1.2c0,0.8,0,1.6-0.1,2.4c-0.9,8.4-4.2,16-8.5,23.2c-0.6,0.9-1.1,1.9-1.7,2.8c-0.5,0.9-1,1.7-1.5,2.6
	C56.8,109.1,56,110.3,55.3,111.6z"/>
<path class="st0" d="M46.1,14.5L49,13l1,15.8l0.8,12.2c0,1.2,0.2,16.1,0.9,23.4c0.3,3.5,0.5,7,0.4,10.5c0,0,0.1,6.1-0.6,11.9l0,0.1
	c-0.9,12.6-1.1,10.6-4.2,25c-0.2,0.9-0.5,1.9-0.8,2.8c-0.2,0.4-0.4,0.9-0.8,1.2c-0.3,0.3-0.8,0.4-1.3,0.4c-0.6,0-1.3-0.7-1.3-1.2
	l0-0.4c0.1-1,0.2-2,0.5-2.9c1.8-6.8,2.9-13.8,3.8-20.7c0.9-7.9,1.4-15.9,0.9-23.9c-0.5-7.5-0.9-22.8-0.9-22.8L46.1,14.5z"/>
</svg>
