<svg id="Layer_1" data-name="Layer 1" xmlns="http://www.w3.org/2000/svg" xmlns:xlink="http://www.w3.org/1999/xlink" viewBox="0 0 459.25 456.03"><defs><style>.cls-1,.cls-12,.cls-17,.cls-5{fill:#fff;}.cls-10,.cls-2{fill:#f0f3f5;}.cls-3{mask:url(#mask);}.cls-4{fill:#848a8a;}.cls-10,.cls-13,.cls-15,.cls-5,.cls-8{stroke:#c4cacc;}.cls-12,.cls-17,.cls-5,.cls-8,.cls-9{stroke-width:4px;}.cls-6{mask:url(#mask-2);}.cls-7{fill:#c4cacc;}.cls-13,.cls-14,.cls-15,.cls-16,.cls-8,.cls-9{fill:none;}.cls-8{stroke-linecap:square;}.cls-9{stroke:#e1e4e5;}.cls-10,.cls-15,.cls-16{stroke-width:2px;}.cls-11{fill:#e1e4e5;}.cls-12,.cls-16{stroke:#848a8a;}.cls-13,.cls-14{stroke-width:12px;}.cls-14{stroke:#fff;}.cls-17{stroke:#4a5050;}.cls-18{fill:#443c43;}.cls-19{fill:#c4c4c4;}</style><mask id="mask" x="118.45" y="52.34" width="224" height="176" maskUnits="userSpaceOnUse"><g transform="translate(-28.55 -2.66)"><g id="path-1-inside-1"><path class="cls-1" d="M174.56,59a6,6,0,0,0-6,6v8H163a12,12,0,0,0-12,12V215a12,12,0,0,0,12,12H355a12,12,0,0,0,12-12V85a12,12,0,0,0-12-12H243.44V65a6,6,0,0,0-6-6Z"/></g></g></mask><mask id="mask-2" x="116.02" y="42.85" width="27.67" height="13.07" maskUnits="userSpaceOnUse"><g transform="translate(-28.55 -2.66)"><g id="path-4-inside-2"><path class="cls-1" d="M148.6,54.64a2,2,0,0,1,1.62-2.32L166,49.54a2,2,0,0,1,2.31,1.63Z"/></g></g></mask></defs><title>backdrop.d558071a</title><path class="cls-2" d="M174.56,59a6,6,0,0,0-6,6v8H163a12,12,0,0,0-12,12V215a12,12,0,0,0,12,12H355a12,12,0,0,0,12-12V85a12,12,0,0,0-12-12H243.44V65a6,6,0,0,0-6-6Z" transform="translate(-28.55 -2.66)"/><g class="cls-3"><path class="cls-4" d="M168.56,73v4h4V73Zm74.88,0h-4v4h4Zm-70.88-8a2,2,0,0,1,2-2V55a10,10,0,0,0-10,10Zm0,8V65h-8v8ZM163,77h5.56V69H163Zm-8,8a8,8,0,0,1,8-8V69a16,16,0,0,0-16,16Zm0,130V85h-8V215Zm8,8a8,8,0,0,1-8-8h-8a16,16,0,0,0,16,16Zm192,0H163v8H355Zm8-8a8,8,0,0,1-8,8v8a16,16,0,0,0,16-16Zm0-130V215h8V85Zm-8-8a8,8,0,0,1,8,8h8a16,16,0,0,0-16-16ZM243.44,77H355V69H243.44Zm-4-12v8h8V65Zm-2-2a2,2,0,0,1,2,2h8a10,10,0,0,0-10-10Zm-62.88,0h62.88V55H174.56Z" transform="translate(-28.55 -2.66)"/></g><rect class="cls-5" x="135.81" y="47.43" width="128" height="86" rx="10" ry="10" transform="translate(-41.21 33.41) rotate(-10)"/><path class="cls-1" d="M148.6,54.64a2,2,0,0,1,1.62-2.32L166,49.54a2,2,0,0,1,2.31,1.63Z" transform="translate(-28.55 -2.66)"/><g class="cls-6"><path class="cls-7" d="M150.92,56.26l15.75-2.78-1.39-7.87-15.75,2.77Zm16.68-9L147.9,50.7l1.39,7.88L169,55.11Zm-.93,6.25a2,2,0,0,1-2.31-1.62l7.87-1.39a6,6,0,0,0-6.95-4.86Zm-17.14-5.1a6,6,0,0,0-4.87,6.95L152.54,54a2,2,0,0,1-1.62,2.31Z" transform="translate(-28.55 -2.66)"/></g><path class="cls-8" d="M135.58,87.72l124-21.87" transform="translate(-28.55 -2.66)"/><path class="cls-5" d="M209,114.44A24,24,0,1,0,181.17,95,24,24,0,0,0,209,114.44Z" transform="translate(-28.55 -2.66)"/><path class="cls-9" d="M219.47,88.44a15,15,0,1,1-17.38-12.17A15,15,0,0,1,219.47,88.44Z" transform="translate(-28.55 -2.66)"/><rect class="cls-10" x="227.22" y="47.79" width="20" height="14" rx="3" ry="3" transform="translate(-34.46 39.37) rotate(-10)"/><path class="cls-7" d="M148.33,75.57a4,4,0,1,0-4.63-3.24A4,4,0,0,0,148.33,75.57Z" transform="translate(-28.55 -2.66)"/><path class="cls-11" d="M160.33,73.57a4,4,0,1,0-4.63-3.24A4,4,0,0,0,160.33,73.57Z" transform="translate(-28.55 -2.66)"/><path class="cls-12" d="M299.17,156.3l43.4,6.1a1.67,1.67,0,0,0,1.06-.44,4.17,4.17,0,0,0,1.27-1.77l8.27-22.1a6.66,6.66,0,0,1,1.56-2.26l-59.92-8.42a6.76,6.76,0,0,1,.87,2.6l1.86,23.52a4.13,4.13,0,0,0,.73,2.05A1.62,1.62,0,0,0,299.17,156.3Z" transform="translate(-28.55 -2.66)"/><path class="cls-5" d="M321.42,4.68l43.4,6.1c1.67.24,3.17,2.28,3.35,4.59L370,38.89c.18,2.3,3.82,5.47,1.69,5.17l-66.1-9.28c-2.13-.3,2.23-2.34,3.05-4.52l8.27-22.09C317.75,6,319.75,4.45,321.42,4.68Z" transform="translate(-28.55 -2.66)"/><rect class="cls-1" x="287.55" y="48.36" width="88" height="72" rx="10" ry="10" transform="matrix(0.14, -0.99, 0.99, 0.14, 173.32, 398.28)"/><rect class="cls-13" x="287.55" y="48.36" width="88" height="72" rx="10" ry="10" transform="matrix(0.14, -0.99, 0.99, 0.14, 173.32, 398.28)"/><rect class="cls-14" x="287.55" y="48.36" width="88" height="72" rx="10" ry="10" transform="matrix(0.14, -0.99, 0.99, 0.14, 173.32, 398.28)"/><rect class="cls-13" x="287.55" y="48.36" width="88" height="72" rx="10" ry="10" transform="matrix(0.14, -0.99, 0.99, 0.14, 173.32, 398.28)"/><path class="cls-15" d="M317,15a2.25,2.25,0,0,1,2.7-1.64l44.67,6.28a2.24,2.24,0,0,1,2.14,2.32h0" transform="translate(-28.55 -2.66)"/><path class="cls-15" d="M315,21a2.33,2.33,0,0,1,2.8-1.63l46.45,6.53a2.32,2.32,0,0,1,2.24,2.34h0" transform="translate(-28.55 -2.66)"/><path class="cls-15" d="M311,27c.15-1.09,1.49-1.81,3-1.6l50,7c1.5.21,2.59,1.26,2.43,2.36h0" transform="translate(-28.55 -2.66)"/><path class="cls-16" d="M347.73,155a2.31,2.31,0,0,1-2.8,1.63l-46.45-6.53a2.3,2.3,0,0,1-2.24-2.33h0" transform="translate(-28.55 -2.66)"/><path class="cls-16" d="M348.84,147.12a2.32,2.32,0,0,1-2.79,1.63l-46.46-6.53a2.32,2.32,0,0,1-2.24-2.34h0" transform="translate(-28.55 -2.66)"/><path class="cls-16" d="M351.94,139.48c-.16,1.09-1.49,1.81-3,1.6l-50-7c-1.5-.21-2.59-1.25-2.44-2.36h0" transform="translate(-28.55 -2.66)"/><rect class="cls-17" x="102.45" y="102.34" width="254.53" height="122" rx="10" ry="10"/><path class="cls-11" d="M258,182.23l-18.22,10.85,4.69-20.68-15.95-14,21.12-1.93L258,137l8.36,19.49,21.12,1.93-16,14,4.69,20.68Z" transform="translate(-28.55 -2.66)"/><path class="cls-18" d="M109,309h-8.08l-13-22.68h-.19q.39,6,.39,8.57V309H82.42V279h8l13,22.45h.15c-.21-3.89-.31-6.65-.31-8.26V279H109Zm12.24-11.51a9.66,9.66,0,0,0,1.11,5.15,4,4,0,0,0,3.65,1.75,3.92,3.92,0,0,0,3.59-1.73,9.72,9.72,0,0,0,1.1-5.17,9.45,9.45,0,0,0-1.1-5.1,4.7,4.7,0,0,0-7.24,0A9.37,9.37,0,0,0,121.26,297.49Zm15.85,0q0,5.61-3,8.76t-8.22,3.16a11.66,11.66,0,0,1-5.83-1.43,9.71,9.71,0,0,1-3.87-4.17,13.85,13.85,0,0,1-1.36-6.32q0-5.61,2.94-8.73t8.24-3.12a11.52,11.52,0,0,1,5.82,1.44,9.49,9.49,0,0,1,3.88,4.12A13.85,13.85,0,0,1,137.11,297.49Zm34-18.47h6.42l-10.19,30h-6.93l-10.17-30h6.42l5.64,17.84q.47,1.58,1,3.69t.63,2.91a55.18,55.18,0,0,1,1.54-6.6Zm9.64,1.13q0-3.06,3.4-3.06t3.41,3.06a3,3,0,0,1-.86,2.27,3.59,3.59,0,0,1-2.55.8Q180.78,283.22,180.79,280.15ZM187.31,309h-6.25V286.07h6.25Zm14,.41a7.47,7.47,0,0,1-6.36-3.14q-2.29-3.13-2.3-8.69T195,288.8a7.63,7.63,0,0,1,6.48-3.16,7.46,7.46,0,0,1,6.6,3.37h.21a25.13,25.13,0,0,1-.47-4.58v-7.34h6.27V309h-4.8l-1.21-3h-.26A7.17,7.17,0,0,1,201.34,309.41Zm2.19-5A4.22,4.22,0,0,0,207,303c.75-.93,1.16-2.51,1.23-4.73v-.68c0-2.46-.39-4.23-1.15-5.29a4.18,4.18,0,0,0-3.69-1.6,3.68,3.68,0,0,0-3.26,1.78,9.45,9.45,0,0,0-1.15,5.15,9,9,0,0,0,1.17,5.08A3.81,3.81,0,0,0,203.53,304.43Zm26.8-14.34a4,4,0,0,0-3.12,1.27,5.84,5.84,0,0,0-1.29,3.57h8.78a5.21,5.21,0,0,0-1.21-3.57A4.1,4.1,0,0,0,230.33,290.09Zm.88,19.32q-5.53,0-8.65-3.06c-2.08-2-3.12-4.92-3.12-8.65s1-6.81,2.87-8.9a10.27,10.27,0,0,1,8-3.16,10.1,10.1,0,0,1,7.57,2.77,10.51,10.51,0,0,1,2.71,7.65v3H225.78a6.06,6.06,0,0,0,1.58,4.16,5.53,5.53,0,0,0,4.14,1.5,17.06,17.06,0,0,0,3.92-.44,19,19,0,0,0,3.85-1.37v4.84a14.21,14.21,0,0,1-3.5,1.21A21.86,21.86,0,0,1,231.21,309.41Zm19.61-11.92a9.66,9.66,0,0,0,1.11,5.15,4,4,0,0,0,3.65,1.75,3.93,3.93,0,0,0,3.59-1.73,9.82,9.82,0,0,0,1.1-5.17,9.54,9.54,0,0,0-1.1-5.1,4.7,4.7,0,0,0-7.24,0A9.37,9.37,0,0,0,250.82,297.49Zm15.85,0q0,5.61-2.95,8.76t-8.23,3.16a11.62,11.62,0,0,1-5.82-1.43,9.79,9.79,0,0,1-3.88-4.17,14,14,0,0,1-1.35-6.32q0-5.61,2.93-8.73t8.25-3.12a11.52,11.52,0,0,1,5.82,1.44,9.55,9.55,0,0,1,3.88,4.12A13.85,13.85,0,0,1,266.67,297.49Zm21.35,4.7a6.3,6.3,0,0,1-2.46,5.37c-1.63,1.24-4.07,1.85-7.33,1.85a22.51,22.51,0,0,1-4.26-.35,15.45,15.45,0,0,1-3.3-1v-5.17a21.82,21.82,0,0,0,3.91,1.37,16.09,16.09,0,0,0,3.86.56c2.27,0,3.4-.66,3.4-2a1.61,1.61,0,0,0-.45-1.19,6.16,6.16,0,0,0-1.56-1.05c-.73-.39-1.72-.85-2.95-1.37a19.21,19.21,0,0,1-3.9-2.05,6,6,0,0,1-1.8-2.16,7.29,7.29,0,0,1-.55-3,5.43,5.43,0,0,1,2.35-4.72,11.56,11.56,0,0,1,6.73-1.68,19,19,0,0,1,8.06,1.81L285.88,292a33.91,33.91,0,0,0-3.21-1.21,10,10,0,0,0-3.06-.47c-1.85,0-2.77.49-2.77,1.49a1.76,1.76,0,0,0,.88,1.46,24.36,24.36,0,0,0,3.92,1.82,19,19,0,0,1,3.94,2,6,6,0,0,1,1.84,2.18A6.63,6.63,0,0,1,288,302.19ZM323,309l-2.17-7.14H309.92L307.74,309h-6.85l10.58-30.11h7.78L329.87,309Zm-3.69-12.47q-3-9.7-3.41-11c-.24-.85-.42-1.52-.53-2q-.67,2.63-3.87,13Zm21.28,12.88a7.46,7.46,0,0,1-6.35-3.14q-2.29-3.13-2.3-8.69t2.34-8.78a7.63,7.63,0,0,1,6.48-3.16,7.47,7.47,0,0,1,6.6,3.37h.21a25.22,25.22,0,0,1-.48-4.58v-7.34h6.28V309h-4.8l-1.21-3h-.27A7.15,7.15,0,0,1,340.61,309.41Zm2.2-5a4.22,4.22,0,0,0,3.51-1.4c.75-.93,1.16-2.51,1.23-4.73v-.68c0-2.46-.39-4.23-1.15-5.29a4.2,4.2,0,0,0-3.69-1.6,3.67,3.67,0,0,0-3.26,1.78,9.45,9.45,0,0,0-1.15,5.15,9.06,9.06,0,0,0,1.16,5.08A3.83,3.83,0,0,0,342.81,304.43Zm24.56,5a7.46,7.46,0,0,1-6.35-3.14q-2.29-3.13-2.3-8.69t2.34-8.78a7.63,7.63,0,0,1,6.48-3.16,7.47,7.47,0,0,1,6.6,3.37h.21a25.13,25.13,0,0,1-.47-4.58v-7.34h6.27V309h-4.8l-1.21-3h-.26A7.18,7.18,0,0,1,367.37,309.41Zm2.2-5a4.22,4.22,0,0,0,3.51-1.4c.75-.93,1.16-2.51,1.23-4.73v-.68c0-2.46-.39-4.23-1.15-5.29a4.2,4.2,0,0,0-3.69-1.6,3.67,3.67,0,0,0-3.26,1.78,9.45,9.45,0,0,0-1.15,5.15,9,9,0,0,0,1.17,5.08A3.81,3.81,0,0,0,369.57,304.43Zm26.8-14.34a4,4,0,0,0-3.12,1.27,5.84,5.84,0,0,0-1.29,3.57h8.78a5.21,5.21,0,0,0-1.21-3.57A4.1,4.1,0,0,0,396.37,290.09Zm.88,19.32q-5.53,0-8.65-3.06c-2.08-2-3.12-4.92-3.12-8.65s1-6.81,2.87-8.9a10.27,10.27,0,0,1,8-3.16,10.1,10.1,0,0,1,7.57,2.77,10.5,10.5,0,0,1,2.7,7.65v3H391.82a6,6,0,0,0,1.58,4.16,5.53,5.53,0,0,0,4.14,1.5,17.06,17.06,0,0,0,3.92-.44,19,19,0,0,0,3.85-1.37v4.84A14.14,14.14,0,0,1,401.8,309,21.76,21.76,0,0,1,397.25,309.41Zm21.88,0a7.5,7.5,0,0,1-6.36-3.14q-2.29-3.13-2.29-8.69t2.34-8.78a7.63,7.63,0,0,1,6.48-3.16,7.47,7.47,0,0,1,6.6,3.37h.21a25.22,25.22,0,0,1-.48-4.58v-7.34h6.28V309h-4.8l-1.21-3h-.27A7.17,7.17,0,0,1,419.13,309.41Zm2.2-5a4.18,4.18,0,0,0,3.5-1.4c.75-.93,1.17-2.51,1.23-4.73v-.68c0-2.46-.38-4.23-1.14-5.29a4.22,4.22,0,0,0-3.7-1.6,3.69,3.69,0,0,0-3.26,1.78,9.54,9.54,0,0,0-1.14,5.15,9,9,0,0,0,1.16,5.08A3.83,3.83,0,0,0,421.33,304.43Z" transform="translate(-28.55 -2.66)"/><path class="cls-19" d="M33.39,351.91H35a5.38,5.38,0,0,0,3.35-.88,3.1,3.1,0,0,0,1.11-2.58,3.16,3.16,0,0,0-.94-2.51,4.36,4.36,0,0,0-2.91-.81h-2.2Zm10.94-3.63A6.94,6.94,0,0,1,42,353.92a9.82,9.82,0,0,1-6.54,2H33.39V364H28.55V341.16h7.29c2.77,0,4.88.6,6.31,1.79A6.5,6.5,0,0,1,44.33,348.28ZM53.17,364H48.4V339.69h4.77Zm12.39-14.41a3.05,3.05,0,0,0-2.38,1,4.41,4.41,0,0,0-1,2.72h6.69a4,4,0,0,0-.93-2.72A3.11,3.11,0,0,0,65.56,349.59Zm.67,14.72A9,9,0,0,1,59.64,362a8.79,8.79,0,0,1-2.38-6.59q0-4.39,2.19-6.78a7.84,7.84,0,0,1,6.08-2.41,7.7,7.7,0,0,1,5.76,2.11,8,8,0,0,1,2.06,5.83v2.31H62.09a4.6,4.6,0,0,0,1.2,3.18,4.23,4.23,0,0,0,3.16,1.14,13,13,0,0,0,3-.33,14.92,14.92,0,0,0,2.94-1.05v3.69a11.23,11.23,0,0,1-2.67.92A16.4,16.4,0,0,1,66.23,364.31ZM88.46,364l-.92-2.37h-.12a7,7,0,0,1-2.49,2.1,8,8,0,0,1-3.31.58,5.43,5.43,0,0,1-4-1.43,5.55,5.55,0,0,1-1.44-4.1,4.59,4.59,0,0,1,1.94-4.09A11.18,11.18,0,0,1,84,353.22l3-.09v-.77c0-1.77-.91-2.66-2.72-2.66A12.42,12.42,0,0,0,79.42,351l-1.58-3.22a14.23,14.23,0,0,1,6.69-1.58,8.34,8.34,0,0,1,5.39,1.53,5.67,5.67,0,0,1,1.87,4.66V364Zm-1.4-8.09-1.85.06a5.88,5.88,0,0,0-3.09.75,2.36,2.36,0,0,0-1,2.09c0,1.35.77,2,2.32,2a3.67,3.67,0,0,0,2.64-.95,3.37,3.37,0,0,0,1-2.54Zm22,2.9a4.82,4.82,0,0,1-1.88,4.1,9.19,9.19,0,0,1-5.57,1.4,17.65,17.65,0,0,1-3.25-.26,12.31,12.31,0,0,1-2.52-.75v-3.94a16.5,16.5,0,0,0,3,1.05,12.34,12.34,0,0,0,2.94.42c1.73,0,2.6-.5,2.6-1.5a1.23,1.23,0,0,0-.35-.91,4.64,4.64,0,0,0-1.18-.79q-.86-.47-2.25-1.05a14.42,14.42,0,0,1-3-1.56,4.51,4.51,0,0,1-1.38-1.64,5.66,5.66,0,0,1-.42-2.3,4.15,4.15,0,0,1,1.8-3.6,8.78,8.78,0,0,1,5.12-1.28,14.46,14.46,0,0,1,6.14,1.38L107.41,351a24.89,24.89,0,0,0-2.45-.93,7.66,7.66,0,0,0-2.33-.36c-1.4,0-2.11.38-2.11,1.15a1.35,1.35,0,0,0,.67,1.1,18.76,18.76,0,0,0,3,1.4,14,14,0,0,1,3,1.54,4.6,4.6,0,0,1,1.41,1.66A5.1,5.1,0,0,1,109,358.81Zm11.09-9.22a3,3,0,0,0-2.37,1,4.42,4.42,0,0,0-1,2.72h6.69a4,4,0,0,0-.92-2.72A3.15,3.15,0,0,0,120.13,349.59Zm.67,14.72a9,9,0,0,1-6.59-2.33,8.82,8.82,0,0,1-2.38-6.59q0-4.39,2.19-6.78a7.86,7.86,0,0,1,6.08-2.41,7.74,7.74,0,0,1,5.77,2.11,8,8,0,0,1,2.06,5.83v2.31H116.66a4.61,4.61,0,0,0,1.21,3.18,4.23,4.23,0,0,0,3.15,1.14,13.11,13.11,0,0,0,3-.33,15.08,15.08,0,0,0,2.93-1.05v3.69a11.23,11.23,0,0,1-2.67.92A16.34,16.34,0,0,1,120.8,364.31Zm30.69-.31-.92-2.37h-.13a7,7,0,0,1-2.48,2.1,8,8,0,0,1-3.32.58,5.4,5.4,0,0,1-4-1.43,5.55,5.55,0,0,1-1.44-4.1,4.57,4.57,0,0,1,1.94-4.09,11.17,11.17,0,0,1,5.87-1.47l3-.09v-.77c0-1.77-.9-2.66-2.72-2.66a12.5,12.5,0,0,0-4.92,1.27l-1.58-3.22a14.23,14.23,0,0,1,6.69-1.58,8.34,8.34,0,0,1,5.39,1.53,5.67,5.67,0,0,1,1.88,4.66V364Zm-1.41-8.09-1.84.06a5.89,5.89,0,0,0-3.1.75,2.37,2.37,0,0,0-1,2.09c0,1.35.77,2,2.31,2a3.65,3.65,0,0,0,2.64-.95,3.34,3.34,0,0,0,1-2.54Zm15.33,8.4a5.7,5.7,0,0,1-4.85-2.39,13.4,13.4,0,0,1,0-13.31,5.82,5.82,0,0,1,4.93-2.41,5.69,5.69,0,0,1,5,2.57h.16a19.59,19.59,0,0,1-.36-3.49v-5.59h4.78V364h-3.65l-.93-2.27h-.2A5.44,5.44,0,0,1,165.41,364.31Zm1.67-3.79a3.2,3.2,0,0,0,2.67-1.07,6.14,6.14,0,0,0,.94-3.61v-.51a7,7,0,0,0-.88-4,3.18,3.18,0,0,0-2.81-1.22,2.8,2.8,0,0,0-2.48,1.36,7.13,7.13,0,0,0-.88,3.92,6.87,6.87,0,0,0,.89,3.87A2.93,2.93,0,0,0,167.08,360.52Zm18.72,3.79a5.68,5.68,0,0,1-4.85-2.39,13.4,13.4,0,0,1,0-13.31,5.82,5.82,0,0,1,4.93-2.41,5.69,5.69,0,0,1,5,2.57h.16a19.59,19.59,0,0,1-.36-3.49v-5.59h4.78V364h-3.65l-.93-2.27h-.2A5.44,5.44,0,0,1,185.8,364.31Zm1.67-3.79a3.2,3.2,0,0,0,2.67-1.07,6.14,6.14,0,0,0,.94-3.61v-.51a7,7,0,0,0-.88-4,3.18,3.18,0,0,0-2.81-1.22,2.8,2.8,0,0,0-2.48,1.36,7.13,7.13,0,0,0-.88,3.92,6.87,6.87,0,0,0,.89,3.87A2.93,2.93,0,0,0,187.47,360.52ZM213.26,364l-6.65-17.47h5l3.38,10a17.91,17.91,0,0,1,.7,3.58h.09a15.93,15.93,0,0,1,.71-3.58l3.36-10h5L218.15,364Zm14-22c0-1.56.87-2.33,2.59-2.33s2.6.77,2.6,2.33a2.27,2.27,0,0,1-.66,1.73,2.69,2.69,0,0,1-1.94.61C228.13,344.36,227.26,343.58,227.26,342Zm5,22h-4.77V346.53h4.77Zm10.69.31a5.68,5.68,0,0,1-4.85-2.39,13.43,13.43,0,0,1,0-13.31A5.85,5.85,0,0,1,243,346.2a5.69,5.69,0,0,1,5,2.57h.16a19.59,19.59,0,0,1-.36-3.49v-5.59h4.78V364H249l-.92-2.27h-.2A5.45,5.45,0,0,1,242.92,364.31Zm1.67-3.79a3.2,3.2,0,0,0,2.67-1.07,6.14,6.14,0,0,0,.94-3.61v-.51a7,7,0,0,0-.88-4,3.18,3.18,0,0,0-2.81-1.22,2.8,2.8,0,0,0-2.48,1.36,7.13,7.13,0,0,0-.88,3.92,6.87,6.87,0,0,0,.89,3.87A2.9,2.9,0,0,0,244.59,360.52ZM265,349.59a3.05,3.05,0,0,0-2.38,1,4.41,4.41,0,0,0-1,2.72h6.69a4,4,0,0,0-.92-2.72A3.15,3.15,0,0,0,265,349.59Zm.67,14.72a9,9,0,0,1-6.59-2.33,8.79,8.79,0,0,1-2.38-6.59q0-4.39,2.19-6.78A7.84,7.84,0,0,1,265,346.2a7.7,7.7,0,0,1,5.76,2.11,8,8,0,0,1,2.06,5.83v2.31H261.54a4.6,4.6,0,0,0,1.2,3.18,4.25,4.25,0,0,0,3.16,1.14,13,13,0,0,0,3-.33,14.92,14.92,0,0,0,2.94-1.05v3.69a11.23,11.23,0,0,1-2.67.92A16.34,16.34,0,0,1,265.68,364.31Zm14.94-9.08a7.46,7.46,0,0,0,.84,3.93,3.07,3.07,0,0,0,2.78,1.32,3,3,0,0,0,2.74-1.31,7.45,7.45,0,0,0,.84-3.94,7.27,7.27,0,0,0-.84-3.89,3.07,3.07,0,0,0-2.77-1.29,3,3,0,0,0-2.75,1.29A7.2,7.2,0,0,0,280.62,355.23Zm12.08,0a9.41,9.41,0,0,1-2.25,6.68,8.18,8.18,0,0,1-6.27,2.4,8.8,8.8,0,0,1-4.44-1.09,7.42,7.42,0,0,1-2.95-3.17,10.63,10.63,0,0,1-1-4.82,9.32,9.32,0,0,1,2.23-6.65,8.19,8.19,0,0,1,6.28-2.38,8.81,8.81,0,0,1,4.44,1.1,7.23,7.23,0,0,1,3,3.14A10.47,10.47,0,0,1,292.7,355.23ZM309,358.81a4.82,4.82,0,0,1-1.88,4.1,9.24,9.24,0,0,1-5.57,1.4,17.57,17.57,0,0,1-3.25-.26,12.31,12.31,0,0,1-2.52-.75v-3.94a16.5,16.5,0,0,0,3,1.05,12.34,12.34,0,0,0,2.94.42c1.73,0,2.6-.5,2.6-1.5a1.23,1.23,0,0,0-.35-.91,4.55,4.55,0,0,0-1.19-.79,23,23,0,0,0-2.25-1.05,14.56,14.56,0,0,1-3-1.56,4.51,4.51,0,0,1-1.38-1.64,5.66,5.66,0,0,1-.42-2.3,4.15,4.15,0,0,1,1.8-3.6,8.78,8.78,0,0,1,5.12-1.28,14.49,14.49,0,0,1,6.14,1.38L307.33,351a24.89,24.89,0,0,0-2.45-.93,7.71,7.71,0,0,0-2.33-.36c-1.4,0-2.11.38-2.11,1.15a1.35,1.35,0,0,0,.67,1.1,18.76,18.76,0,0,0,3,1.4,14,14,0,0,1,3,1.54,4.7,4.7,0,0,1,1.41,1.66A5.1,5.1,0,0,1,309,358.81Zm22-12.61a5.64,5.64,0,0,1,4.84,2.43,11,11,0,0,1,1.75,6.6,10.86,10.86,0,0,1-1.81,6.71,6.31,6.31,0,0,1-9.74.14h-.32l-.8,1.92h-3.64V339.69H326v5.65c0,.72-.06,1.87-.18,3.46H326A5.53,5.53,0,0,1,331,346.2ZM329.46,350a3,3,0,0,0-2.58,1.09,6.2,6.2,0,0,0-.85,3.58v.51a7.41,7.41,0,0,0,.83,4,3,3,0,0,0,2.66,1.22,2.64,2.64,0,0,0,2.33-1.34,7.35,7.35,0,0,0,.87-3.94,6.93,6.93,0,0,0-.87-3.86A2.75,2.75,0,0,0,329.46,350Zm9.7-3.49h5.22l3.29,9.83a13.37,13.37,0,0,1,.58,3h.1a12.86,12.86,0,0,1,.67-3l3.23-9.83h5.11L350,366.23a8.54,8.54,0,0,1-2.91,4.1,7.32,7.32,0,0,1-4.39,1.36,10.88,10.88,0,0,1-2.42-.27v-3.78a7.92,7.92,0,0,0,1.88.2,3.35,3.35,0,0,0,2.2-.78,4.9,4.9,0,0,0,1.48-2.33l.29-.85Zm36.4,17.78q-8.16,0-8.16-8.95c0-3,.74-5.23,2.22-6.8A8.32,8.32,0,0,1,376,346.2a12.15,12.15,0,0,1,5.44,1.19L380,351.08c-.75-.3-1.44-.55-2.09-.74a6.86,6.86,0,0,0-1.94-.29q-3.72,0-3.72,5.28,0,5.12,3.72,5.12a8.64,8.64,0,0,0,2.55-.36,9.39,9.39,0,0,0,2.34-1.15V363a7.69,7.69,0,0,1-2.34,1A12.89,12.89,0,0,1,375.56,364.31Zm14.28-.31h-4.76V339.69h4.76Zm5-22c0-1.56.87-2.33,2.6-2.33s2.59.77,2.59,2.33a2.27,2.27,0,0,1-.66,1.73,2.68,2.68,0,0,1-1.93.61C395.66,344.36,394.79,343.58,394.79,342Zm5,22H395V346.53h4.77Zm12.25.31q-8.16,0-8.16-8.95c0-3,.74-5.23,2.22-6.8a8.32,8.32,0,0,1,6.36-2.36,12.18,12.18,0,0,1,5.44,1.19l-1.41,3.69c-.75-.3-1.45-.55-2.09-.74a6.86,6.86,0,0,0-1.94-.29q-3.72,0-3.72,5.28,0,5.12,3.72,5.12a8.64,8.64,0,0,0,2.55-.36,9.39,9.39,0,0,0,2.34-1.15V363a7.69,7.69,0,0,1-2.34,1A12.89,12.89,0,0,1,412,364.31Zm14.09-9.81,2.08-2.66,4.89-5.31h5.38l-6.94,7.58,7.36,9.89h-5.5l-5-7.08-2,1.64V364h-4.77V339.69h4.77v10.84l-.25,4ZM441.3,342c0-1.56.87-2.33,2.6-2.33s2.59.77,2.59,2.33a2.27,2.27,0,0,1-.66,1.73,2.68,2.68,0,0,1-1.93.61C442.17,344.36,441.3,343.58,441.3,342Zm5,22h-4.76V346.53h4.76Zm21.28,0h-4.76V353.8a4.84,4.84,0,0,0-.68-2.83,2.41,2.41,0,0,0-2.14-1,3.21,3.21,0,0,0-2.89,1.34,8.26,8.26,0,0,0-.89,4.42V364h-4.76V346.53h3.64l.64,2.24H456a5,5,0,0,1,2.19-1.91,7.43,7.43,0,0,1,3.19-.66,6.1,6.1,0,0,1,4.62,1.66,6.55,6.55,0,0,1,1.58,4.75Zm20.25-17.47V349l-2.73.71a4.74,4.74,0,0,1,.75,2.62,5.31,5.31,0,0,1-2,4.39,8.51,8.51,0,0,1-5.44,1.56l-.86,0-.7-.08a1.58,1.58,0,0,0-.74,1.25c0,.69.88,1,2.63,1h3a6.7,6.7,0,0,1,4.37,1.24,4.4,4.4,0,0,1,1.52,3.62A5.37,5.37,0,0,1,485,370c-1.69,1.13-4.14,1.69-7.32,1.69a10.2,10.2,0,0,1-5.6-1.28,4,4,0,0,1-1.92-3.57,3.77,3.77,0,0,1,1-2.64,5.61,5.61,0,0,1,2.9-1.51,3.29,3.29,0,0,1-1.29-1,2.47,2.47,0,0,1-.54-1.51,2.4,2.4,0,0,1,.58-1.66,6.26,6.26,0,0,1,1.67-1.31,4.72,4.72,0,0,1-2.19-1.91,5.83,5.83,0,0,1-.8-3.09,5.44,5.44,0,0,1,1.86-4.42,8,8,0,0,1,5.31-1.57,13.29,13.29,0,0,1,1.74.14c.68.09,1.11.15,1.3.19Zm-13.48,19.94a1.74,1.74,0,0,0,.93,1.55,5.32,5.32,0,0,0,2.66.56,9.46,9.46,0,0,0,4-.7,2.15,2.15,0,0,0,1.46-1.93,1.37,1.37,0,0,0-.86-1.36,7.06,7.06,0,0,0-2.66-.37h-2.47a3.78,3.78,0,0,0-2.2.61A1.92,1.92,0,0,0,474.32,366.47Zm1.73-14.22a3.56,3.56,0,0,0,.64,2.25,2.39,2.39,0,0,0,2,.83,2.3,2.3,0,0,0,2-.83,3.62,3.62,0,0,0,.63-2.25c0-2.1-.87-3.16-2.6-3.16S476.05,350.15,476.05,352.25ZM66,404.52a10.54,10.54,0,0,0,3-.55v3.55a10.75,10.75,0,0,1-4.38.79,5.44,5.44,0,0,1-4.17-1.43,6.39,6.39,0,0,1-1.3-4.35v-8.42H56.82v-2l2.63-1.59,1.37-3.69h3v3.72h4.89v3.58H63.87v8.42a1.88,1.88,0,0,0,.56,1.5A2.31,2.31,0,0,0,66,404.52ZM88.76,408H84V397.8c0-2.52-.93-3.78-2.81-3.78a3.19,3.19,0,0,0-2.89,1.36,8.3,8.3,0,0,0-.89,4.4V408H72.63V383.69H77.4v4.95c0,.39,0,1.29-.11,2.72l-.11,1.41h.25a5.52,5.52,0,0,1,5.06-2.57,6.23,6.23,0,0,1,4.68,1.66,6.59,6.59,0,0,1,1.59,4.75ZM101,393.59a3.05,3.05,0,0,0-2.38,1,4.41,4.41,0,0,0-1,2.72h6.69a3.92,3.92,0,0,0-.93-2.72A3.11,3.11,0,0,0,101,393.59Zm.67,14.72A9,9,0,0,1,95.12,406a8.79,8.79,0,0,1-2.38-6.59q0-4.39,2.19-6.78A7.84,7.84,0,0,1,101,390.2a7.7,7.7,0,0,1,5.76,2.11,8,8,0,0,1,2.07,5.83v2.31H97.57a4.6,4.6,0,0,0,1.2,3.18,4.25,4.25,0,0,0,3.16,1.14,13,13,0,0,0,3-.33,14.92,14.92,0,0,0,2.94-1.05v3.69a11.23,11.23,0,0,1-2.67.92A16.34,16.34,0,0,1,101.71,408.31Zm24.51-9.87h-6V395h6v-6.1h3.43V395h6v3.42h-6v6h-3.43Zm31.67-8.24a5.64,5.64,0,0,1,4.85,2.43,11.05,11.05,0,0,1,1.75,6.6,10.86,10.86,0,0,1-1.82,6.71,6.3,6.3,0,0,1-9.73.14h-.33l-.8,1.92h-3.64V383.69h4.77v5.65c0,.72-.06,1.87-.19,3.46h.19A5.51,5.51,0,0,1,157.89,390.2ZM156.36,394a3,3,0,0,0-2.58,1.09,6.21,6.21,0,0,0-.84,3.58v.51a7.32,7.32,0,0,0,.83,4,3,3,0,0,0,2.65,1.22,2.63,2.63,0,0,0,2.33-1.34,7.26,7.26,0,0,0,.88-3.94,6.84,6.84,0,0,0-.88-3.86A2.74,2.74,0,0,0,156.36,394Zm24.58,14-.64-2.23h-.25a5.14,5.14,0,0,1-2.17,1.89,7.64,7.64,0,0,1-3.21.65,6.09,6.09,0,0,1-4.64-1.64,6.67,6.67,0,0,1-1.56-4.75V390.53h4.77v10.2a5,5,0,0,0,.67,2.85,2.45,2.45,0,0,0,2.14.94,3.25,3.25,0,0,0,2.89-1.33,8.39,8.39,0,0,0,.89-4.44v-8.22h4.76V408Zm16.15-3.48a10.43,10.43,0,0,0,3-.55v3.55a10.7,10.7,0,0,1-4.37.79,5.41,5.41,0,0,1-4.17-1.43,6.34,6.34,0,0,1-1.3-4.35v-8.42H188v-2l2.62-1.59,1.38-3.69h3v3.72h4.89v3.58H195v8.42a1.85,1.85,0,0,0,.57,1.5A2.28,2.28,0,0,0,197.09,404.52Zm14,0a10.54,10.54,0,0,0,3-.55v3.55a10.75,10.75,0,0,1-4.38.79,5.44,5.44,0,0,1-4.17-1.43,6.39,6.39,0,0,1-1.3-4.35v-8.42H202v-2l2.63-1.59,1.37-3.69h3.05v3.72H214v3.58h-4.89v8.42a1.88,1.88,0,0,0,.56,1.5A2.31,2.31,0,0,0,211.14,404.52Zm10.48-5.29a7.46,7.46,0,0,0,.84,3.93,3.08,3.08,0,0,0,2.79,1.32,3,3,0,0,0,2.73-1.31,7.45,7.45,0,0,0,.84-3.94,7.27,7.27,0,0,0-.84-3.89,3.6,3.6,0,0,0-5.52,0A7.2,7.2,0,0,0,221.62,399.23Zm12.08,0a9.41,9.41,0,0,1-2.25,6.68,8.18,8.18,0,0,1-6.27,2.4,8.79,8.79,0,0,1-4.43-1.09,7.38,7.38,0,0,1-3-3.17,10.63,10.63,0,0,1-1-4.82,9.32,9.32,0,0,1,2.24-6.65,8.18,8.18,0,0,1,6.28-2.38,8.8,8.8,0,0,1,4.43,1.1,7.25,7.25,0,0,1,3,3.14A10.6,10.6,0,0,1,233.7,399.23ZM253.9,408h-4.77V397.8a4.84,4.84,0,0,0-.67-2.83,2.42,2.42,0,0,0-2.14-1,3.21,3.21,0,0,0-2.89,1.34,8.26,8.26,0,0,0-.89,4.42V408h-4.76V390.53h3.64l.64,2.24h.26a5,5,0,0,1,2.19-1.91,7.43,7.43,0,0,1,3.19-.66,6.1,6.1,0,0,1,4.62,1.66,6.55,6.55,0,0,1,1.58,4.75Zm23.22-17.8a5.64,5.64,0,0,1,4.84,2.43,11,11,0,0,1,1.75,6.6,10.86,10.86,0,0,1-1.81,6.71,6.31,6.31,0,0,1-9.74.14h-.33L271,408H267.4V383.69h4.76v5.65c0,.72-.06,1.87-.18,3.46h.18A5.53,5.53,0,0,1,277.12,390.2ZM275.58,394a3,3,0,0,0-2.57,1.09,6.12,6.12,0,0,0-.85,3.58v.51a7.41,7.41,0,0,0,.83,4,3,3,0,0,0,2.66,1.22,2.64,2.64,0,0,0,2.33-1.34,7.35,7.35,0,0,0,.87-3.94,6.93,6.93,0,0,0-.87-3.86A2.75,2.75,0,0,0,275.58,394Zm19.44-.43a3,3,0,0,0-2.37,1,4.36,4.36,0,0,0-1,2.72h6.69a4,4,0,0,0-.92-2.72A3.15,3.15,0,0,0,295,393.59Zm.67,14.72A9,9,0,0,1,289.1,406a8.82,8.82,0,0,1-2.38-6.59q0-4.39,2.19-6.78A7.86,7.86,0,0,1,295,390.2a7.74,7.74,0,0,1,5.77,2.11,8,8,0,0,1,2.06,5.83v2.31H291.55a4.66,4.66,0,0,0,1.21,3.18,4.23,4.23,0,0,0,3.15,1.14,13.11,13.11,0,0,0,3-.33,15.08,15.08,0,0,0,2.93-1.05v3.69a11.23,11.23,0,0,1-2.67.92A16.34,16.34,0,0,1,295.69,408.31ZM311.6,408h-4.77V383.69h4.77Zm8.95-8.77a7.46,7.46,0,0,0,.84,3.93,3.08,3.08,0,0,0,2.78,1.32,3,3,0,0,0,2.74-1.31,7.45,7.45,0,0,0,.84-3.94,7.27,7.27,0,0,0-.84-3.89,3.6,3.6,0,0,0-5.52,0A7.2,7.2,0,0,0,320.55,399.23Zm12.08,0a9.41,9.41,0,0,1-2.25,6.68,8.18,8.18,0,0,1-6.27,2.4,8.83,8.83,0,0,1-4.44-1.09,7.42,7.42,0,0,1-2.95-3.17,10.63,10.63,0,0,1-1-4.82,9.32,9.32,0,0,1,2.23-6.65,8.2,8.2,0,0,1,6.29-2.38,8.8,8.8,0,0,1,4.43,1.1,7.31,7.31,0,0,1,3,3.14A10.6,10.6,0,0,1,332.63,399.23ZM351.06,408l-1.34-6.11-1.81-7.72h-.11L344.61,408h-5.13l-5-17.47h4.75l2,7.74c.33,1.38.65,3.29,1,5.73h.09a30.58,30.58,0,0,1,.55-3.77l.25-1.32,2.15-8.38h5.25l2.05,8.38c0,.23.1.56.19,1s.18.93.26,1.44.16,1,.22,1.48a9.24,9.24,0,0,1,.13,1.16h.09c.1-.75.26-1.78.5-3.08s.41-2.2.52-2.65l2.09-7.74h4.67l-5,17.47Zm17.86-3.36a48.8,48.8,0,0,1-2.75,7.49h-3.44c.68-2.78,1.21-5.39,1.58-7.85h4.38Zm25.39-1.83a4.82,4.82,0,0,1-1.88,4.1,9.24,9.24,0,0,1-5.57,1.4,17.57,17.57,0,0,1-3.25-.26,12.31,12.31,0,0,1-2.52-.75v-3.94a16.35,16.35,0,0,0,3,1.05,12.2,12.2,0,0,0,2.93.42c1.73,0,2.6-.5,2.6-1.5a1.23,1.23,0,0,0-.35-.91,4.64,4.64,0,0,0-1.18-.79q-.85-.47-2.25-1.05a14.42,14.42,0,0,1-3-1.56,4.51,4.51,0,0,1-1.38-1.64,5.66,5.66,0,0,1-.42-2.3,4.15,4.15,0,0,1,1.8-3.6A8.78,8.78,0,0,1,388,390.2a14.49,14.49,0,0,1,6.14,1.38L392.68,395a24.89,24.89,0,0,0-2.45-.93,7.71,7.71,0,0,0-2.33-.36c-1.4,0-2.11.38-2.11,1.15a1.35,1.35,0,0,0,.67,1.1,18.76,18.76,0,0,0,3,1.4,14,14,0,0,1,3,1.54,4.7,4.7,0,0,1,1.41,1.66A5.1,5.1,0,0,1,394.31,402.81Zm11.22,1.71a10.54,10.54,0,0,0,3-.55v3.55a10.75,10.75,0,0,1-4.38.79,5.41,5.41,0,0,1-4.17-1.43,6.34,6.34,0,0,1-1.3-4.35v-8.42H396.4v-2L399,390.5l1.37-3.69h3.05v3.72h4.89v3.58h-4.89v8.42A1.88,1.88,0,0,0,404,404,2.31,2.31,0,0,0,405.53,404.52ZM423.31,408l-.93-2.37h-.12a7,7,0,0,1-2.49,2.1,7.92,7.92,0,0,1-3.31.58,5.44,5.44,0,0,1-4-1.43,5.59,5.59,0,0,1-1.43-4.1,4.59,4.59,0,0,1,1.93-4.09,11.21,11.21,0,0,1,5.88-1.47l3-.09v-.77c0-1.77-.91-2.66-2.72-2.66a12.46,12.46,0,0,0-4.92,1.27l-1.58-3.22a14.23,14.23,0,0,1,6.69-1.58,8.34,8.34,0,0,1,5.39,1.53,5.67,5.67,0,0,1,1.87,4.66V408Zm-1.41-8.09-1.84.06a5.89,5.89,0,0,0-3.1.75,2.37,2.37,0,0,0-1,2.09c0,1.35.77,2,2.31,2a3.67,3.67,0,0,0,2.64-.95,3.34,3.34,0,0,0,1-2.54Zm19.55-9.71a7.84,7.84,0,0,1,1.6.14l-.35,4.47a5.75,5.75,0,0,0-1.41-.15,5.08,5.08,0,0,0-3.56,1.17,4.22,4.22,0,0,0-1.27,3.28V408H431.7V390.53h3.6l.71,2.94h.23a6.46,6.46,0,0,1,2.19-2.36A5.46,5.46,0,0,1,441.45,390.2Zm12.28,14.32a10.54,10.54,0,0,0,3-.55v3.55a10.75,10.75,0,0,1-4.38.79,5.41,5.41,0,0,1-4.17-1.43,6.34,6.34,0,0,1-1.3-4.35v-8.42H444.6v-2l2.63-1.59,1.37-3.69h3v3.72h4.89v3.58h-4.89v8.42a1.85,1.85,0,0,0,.56,1.5A2.31,2.31,0,0,0,453.73,404.52ZM85,451H80.22V440.8a5,5,0,0,0-.64-2.83,2.2,2.2,0,0,0-2-1,2.87,2.87,0,0,0-2.65,1.34,8.84,8.84,0,0,0-.83,4.42V451H69.34V433.53H73l.64,2.24h.26a4.8,4.8,0,0,1,2-1.88,6.53,6.53,0,0,1,3-.69c2.61,0,4.39.86,5.31,2.57h.42a4.64,4.64,0,0,1,2.07-1.89,6.88,6.88,0,0,1,3.09-.68,6,6,0,0,1,4.48,1.53q1.55,1.51,1.54,4.88V451H91.09V440.8a5,5,0,0,0-.64-2.83,2.17,2.17,0,0,0-2-1,3,3,0,0,0-2.63,1.25,7.14,7.14,0,0,0-.85,4Zm27,0-.92-2.37H111a7,7,0,0,1-2.49,2.1,7.92,7.92,0,0,1-3.31.58,5.43,5.43,0,0,1-4-1.43,5.55,5.55,0,0,1-1.44-4.1,4.59,4.59,0,0,1,1.94-4.09,11.18,11.18,0,0,1,5.88-1.47l3-.09v-.77c0-1.77-.91-2.66-2.72-2.66A12.42,12.42,0,0,0,103,438l-1.58-3.22a14.23,14.23,0,0,1,6.69-1.58,8.34,8.34,0,0,1,5.39,1.53,5.67,5.67,0,0,1,1.87,4.66V451Zm-1.4-8.09-1.85.06a5.88,5.88,0,0,0-3.09.75,2.35,2.35,0,0,0-1,2.09c0,1.35.77,2,2.31,2a3.67,3.67,0,0,0,2.64-.95,3.34,3.34,0,0,0,1-2.54ZM125,441.5l2.08-2.66,4.89-5.31h5.38l-6.94,7.58,7.36,9.89h-5.5l-5-7.08-2,1.64V451H120.4V426.69h4.77v10.84l-.25,4ZM140.18,429c0-1.56.87-2.33,2.6-2.33s2.59.77,2.59,2.33a2.27,2.27,0,0,1-.66,1.73,2.68,2.68,0,0,1-1.93.61C141.05,431.36,140.18,430.58,140.18,429Zm5,22h-4.76V433.53h4.76Zm21.28,0h-4.76V440.8A4.84,4.84,0,0,0,161,438a2.41,2.41,0,0,0-2.14-1,3.21,3.21,0,0,0-2.89,1.34,8.26,8.26,0,0,0-.89,4.42V451h-4.76V433.53H154l.64,2.24h.26a5,5,0,0,1,2.19-1.91,7.43,7.43,0,0,1,3.19-.66,6.1,6.1,0,0,1,4.62,1.66,6.55,6.55,0,0,1,1.58,4.75Zm20.25-17.47V436l-2.73.71a4.74,4.74,0,0,1,.75,2.62,5.31,5.31,0,0,1-2,4.39,8.51,8.51,0,0,1-5.44,1.56l-.86,0-.7-.08a1.58,1.58,0,0,0-.74,1.25c0,.69.88,1,2.63,1h3a6.7,6.7,0,0,1,4.37,1.24,4.4,4.4,0,0,1,1.52,3.62,5.37,5.37,0,0,1-2.57,4.75c-1.69,1.13-4.14,1.69-7.32,1.69a10.22,10.22,0,0,1-5.6-1.28,4,4,0,0,1-1.92-3.57,3.73,3.73,0,0,1,1-2.64,5.53,5.53,0,0,1,2.89-1.51,3.29,3.29,0,0,1-1.29-1,2.47,2.47,0,0,1-.54-1.51,2.4,2.4,0,0,1,.58-1.66,6.26,6.26,0,0,1,1.67-1.31,4.72,4.72,0,0,1-2.19-1.91,5.83,5.83,0,0,1-.8-3.09,5.44,5.44,0,0,1,1.86-4.42,8,8,0,0,1,5.32-1.57,13.42,13.42,0,0,1,1.73.14c.68.09,1.11.15,1.3.19ZM173.2,453.47a1.74,1.74,0,0,0,.93,1.55,5.32,5.32,0,0,0,2.66.56,9.54,9.54,0,0,0,4-.7,2.16,2.16,0,0,0,1.45-1.93,1.37,1.37,0,0,0-.86-1.36,7.06,7.06,0,0,0-2.66-.37h-2.47a3.78,3.78,0,0,0-2.2.61A1.92,1.92,0,0,0,173.2,453.47Zm1.73-14.22a3.56,3.56,0,0,0,.64,2.25,2.39,2.39,0,0,0,2,.83,2.29,2.29,0,0,0,2-.83,3.62,3.62,0,0,0,.63-2.25c0-2.1-.86-3.16-2.59-3.16S174.93,437.15,174.93,439.25Zm20.73-5.72h5.22l3.3,9.83a13.94,13.94,0,0,1,.58,3h.09a13.38,13.38,0,0,1,.67-3l3.24-9.83h5.11l-7.39,19.7a8.54,8.54,0,0,1-2.91,4.1,7.34,7.34,0,0,1-4.39,1.36,10.81,10.81,0,0,1-2.42-.27v-3.78a7.83,7.83,0,0,0,1.87.2,3.31,3.31,0,0,0,2.2-.78,4.91,4.91,0,0,0,1.49-2.33l.28-.85Zm24.66,8.7a7.46,7.46,0,0,0,.84,3.93,3.07,3.07,0,0,0,2.78,1.32,3,3,0,0,0,2.74-1.31,7.45,7.45,0,0,0,.84-3.94,7.27,7.27,0,0,0-.84-3.89,3.07,3.07,0,0,0-2.77-1.29,3,3,0,0,0-2.75,1.29A7.2,7.2,0,0,0,220.32,442.23Zm12.08,0a9.41,9.41,0,0,1-2.25,6.68,8.18,8.18,0,0,1-6.27,2.4,8.8,8.8,0,0,1-4.44-1.09,7.42,7.42,0,0,1-2.95-3.17,10.63,10.63,0,0,1-1-4.82,9.32,9.32,0,0,1,2.23-6.65A8.18,8.18,0,0,1,224,433.2a8.81,8.81,0,0,1,4.44,1.1,7.23,7.23,0,0,1,3,3.14A10.47,10.47,0,0,1,232.4,442.23ZM248.85,451l-.64-2.23H248a5.11,5.11,0,0,1-2.18,1.89,7.56,7.56,0,0,1-3.2.65,6.09,6.09,0,0,1-4.64-1.64,6.67,6.67,0,0,1-1.56-4.75V433.53h4.76v10.2a5,5,0,0,0,.68,2.85,2.45,2.45,0,0,0,2.14.94,3.25,3.25,0,0,0,2.89-1.33,8.39,8.39,0,0,0,.89-4.44v-8.22h4.76V451Zm18.54-17.8a8,8,0,0,1,1.61.14l-.36,4.47a5.6,5.6,0,0,0-1.4-.15,5.1,5.1,0,0,0-3.57,1.17,4.25,4.25,0,0,0-1.26,3.28V451h-4.77V433.53h3.61l.7,2.94h.24a6.46,6.46,0,0,1,2.19-2.36A5.43,5.43,0,0,1,267.39,433.2ZM284.92,451l-6.66-17.47h5l3.37,10a18,18,0,0,1,.71,3.58h.09a15.84,15.84,0,0,1,.7-3.58l3.36-10h5L289.81,451Zm19,0h-4.77V426.69h4.77Zm8.95-8.77a7.46,7.46,0,0,0,.84,3.93,3.08,3.08,0,0,0,2.78,1.32,3,3,0,0,0,2.74-1.31,7.45,7.45,0,0,0,.84-3.94,7.27,7.27,0,0,0-.84-3.89,3.6,3.6,0,0,0-5.52,0A7.2,7.2,0,0,0,312.84,442.23Zm12.08,0a9.41,9.41,0,0,1-2.25,6.68,8.18,8.18,0,0,1-6.27,2.4,8.86,8.86,0,0,1-4.44-1.09,7.42,7.42,0,0,1-2.95-3.17,10.63,10.63,0,0,1-1-4.82,9.36,9.36,0,0,1,2.23-6.65,8.2,8.2,0,0,1,6.29-2.38,8.8,8.8,0,0,1,4.43,1.1,7.31,7.31,0,0,1,3,3.14A10.6,10.6,0,0,1,324.92,442.23Zm19.28-8.7V436l-2.74.71a4.74,4.74,0,0,1,.75,2.62,5.28,5.28,0,0,1-2,4.39,8.48,8.48,0,0,1-5.43,1.56l-.86,0-.71-.08a1.57,1.57,0,0,0-.73,1.25c0,.69.88,1,2.63,1h3a6.71,6.71,0,0,1,4.38,1.24,4.39,4.39,0,0,1,1.51,3.62,5.36,5.36,0,0,1-2.56,4.75q-2.55,1.69-7.33,1.69a10.18,10.18,0,0,1-5.59-1.28,4,4,0,0,1-1.92-3.57,3.77,3.77,0,0,1,1-2.64,5.57,5.57,0,0,1,2.89-1.51,3.26,3.26,0,0,1-1.28-1,2.47,2.47,0,0,1-.54-1.51,2.44,2.44,0,0,1,.57-1.66,6.33,6.33,0,0,1,1.68-1.31,4.72,4.72,0,0,1-2.19-1.91,5.83,5.83,0,0,1-.8-3.09,5.44,5.44,0,0,1,1.86-4.42,8,8,0,0,1,5.31-1.57,13.42,13.42,0,0,1,1.74.14c.67.09,1.11.15,1.29.19Zm-13.49,19.94a1.73,1.73,0,0,0,.94,1.55,5.32,5.32,0,0,0,2.66.56,9.49,9.49,0,0,0,4-.7,2.14,2.14,0,0,0,1.45-1.93,1.36,1.36,0,0,0-.85-1.36,7.1,7.1,0,0,0-2.66-.37h-2.47a3.78,3.78,0,0,0-2.2.61A1.9,1.9,0,0,0,330.71,453.47Zm1.74-14.22a3.56,3.56,0,0,0,.64,2.25,2.37,2.37,0,0,0,2,.83,2.31,2.31,0,0,0,2-.83,3.62,3.62,0,0,0,.63-2.25c0-2.1-.87-3.16-2.6-3.16S332.45,437.15,332.45,439.25Zm27,6.56a4.82,4.82,0,0,1-1.87,4.1,9.25,9.25,0,0,1-5.58,1.4,17.73,17.73,0,0,1-3.25-.26,12.41,12.41,0,0,1-2.51-.75v-3.94a16.24,16.24,0,0,0,3,1.05,12.27,12.27,0,0,0,2.94.42c1.73,0,2.59-.5,2.59-1.5a1.22,1.22,0,0,0-.34-.91,4.73,4.73,0,0,0-1.19-.79,23,23,0,0,0-2.25-1.05,15,15,0,0,1-3-1.56,4.58,4.58,0,0,1-1.37-1.64,5.49,5.49,0,0,1-.43-2.3,4.15,4.15,0,0,1,1.8-3.6,8.84,8.84,0,0,1,5.13-1.28,14.49,14.49,0,0,1,6.14,1.38L357.79,438a25.89,25.89,0,0,0-2.45-.93,7.71,7.71,0,0,0-2.33-.36c-1.41,0-2.11.38-2.11,1.15a1.33,1.33,0,0,0,.67,1.1,18.51,18.51,0,0,0,3,1.4,13.48,13.48,0,0,1,3,1.54,4.5,4.5,0,0,1,1.41,1.66A5.1,5.1,0,0,1,359.41,445.81ZM387.85,451h-4.77V440.8a4.84,4.84,0,0,0-.67-2.83,2.42,2.42,0,0,0-2.14-1,3.2,3.2,0,0,0-2.89,1.34,8.26,8.26,0,0,0-.89,4.42V451h-4.77V433.53h3.64l.65,2.24h.26a5,5,0,0,1,2.19-1.91,7.43,7.43,0,0,1,3.19-.66,6.1,6.1,0,0,1,4.62,1.66,6.59,6.59,0,0,1,1.58,4.75Zm8.84-8.77a7.35,7.35,0,0,0,.85,3.93,3.07,3.07,0,0,0,2.78,1.32,3,3,0,0,0,2.73-1.31,7.45,7.45,0,0,0,.84-3.94,7.27,7.27,0,0,0-.84-3.89,3.59,3.59,0,0,0-5.51,0A7.1,7.1,0,0,0,396.69,442.23Zm12.08,0a9.41,9.41,0,0,1-2.25,6.68,8.18,8.18,0,0,1-6.27,2.4,8.79,8.79,0,0,1-4.43-1.09,7.44,7.44,0,0,1-3-3.17,10.76,10.76,0,0,1-1-4.82,9.32,9.32,0,0,1,2.24-6.65,8.18,8.18,0,0,1,6.28-2.38,8.86,8.86,0,0,1,4.44,1.1,7.29,7.29,0,0,1,2.95,3.14A10.47,10.47,0,0,1,408.77,442.23ZM427.2,451l-1.34-6.11-1.81-7.72h-.11L420.75,451h-5.12l-5-17.47h4.75l2,7.74q.49,2.07,1,5.73h.09a32.7,32.7,0,0,1,.55-3.77l.25-1.32,2.15-8.38h5.25l2.05,8.38c0,.23.11.56.19,1s.18.93.26,1.44.16,1,.22,1.48a9.24,9.24,0,0,1,.13,1.16h.09c.1-.75.26-1.78.5-3.08s.41-2.2.52-2.65l2.09-7.74h4.67l-5,17.47Zm12.52-2.23a2.62,2.62,0,0,1,.7-2,2.85,2.85,0,0,1,2.05-.67,2.75,2.75,0,0,1,2,.69,2.59,2.59,0,0,1,.72,2,2.63,2.63,0,0,1-.72,2,2.74,2.74,0,0,1-2,.7,2.81,2.81,0,0,1-2-.69A2.6,2.6,0,0,1,439.72,448.77Z" transform="translate(-28.55 -2.66)"/></svg>