<svg xmlns="http://www.w3.org/2000/svg" viewBox="0 0 44 41"><defs><style>.a{fill:none;stroke:#c14c9f;stroke-miterlimit:10;stroke-width:3px;}</style></defs><title>record-03</title><path class="a" d="M32.56,32.89v3.84a2.64,2.64,0,0,1-3,3H5.77A2.67,2.67,0,0,1,3,37.28c0-5.87,0-11.74,0-17.61a2.64,2.64,0,0,1,2.61-2.6c1.61,0,11.49,0,13.11,0h11A2.63,2.63,0,0,1,32.57,20v4c.24-.22,4.55-4.49,6.54-6.52a.75.75,0,0,1,.93-.18,1.89,1.89,0,0,1,1.26,1.85q0,9.33,0,18.67A1.9,1.9,0,0,1,40,39.6a.81.81,0,0,1-.94-.23C37.08,37.37,32.82,33.14,32.56,32.89Z"/></svg>