<svg width="44" height="26" viewBox="0 0 44 26" fill="none" xmlns="http://www.w3.org/2000/svg">
<path fill-rule="evenodd" clip-rule="evenodd" d="M37 26C40.866 26 44 22.866 44 19V7C44 3.13401 40.866 0 37 0L7 0C3.13401 0 0 3.13401 0 7V19C0 22.866 3.13401 26 7 26L37 26ZM35 3V23L11 23L11 3L35 3ZM41 7V19C40.9941 20.9302 39.7614 22.5388 38 23L38 3C39.7614 3.46124 40.9941 5.06982 41 7ZM3 19V7C3 4.79086 4.79086 3 7 3H8L8 23H7C4.79086 23 3 21.2091 3 19Z" fill="#CE6CB1"/>
<path fill-rule="evenodd" clip-rule="evenodd" d="M4 12.5C4 13.3284 4.67157 14 5.5 14C6.32843 14 7 13.3284 7 12.5C7 11.6716 6.32843 11 5.5 11C4.67157 11 4 11.6716 4 12.5Z" fill="#CE6CB1"/>
</svg>
