<svg width="40" height="40" viewBox="0 0 40 40" fill="none" xmlns="http://www.w3.org/2000/svg">
<path fill-rule="evenodd" clip-rule="evenodd" d="M14.72 0.400024H3.71997C2.06312 0.400024 0.719971 1.74317 0.719971 3.40002V14.4C0.719971 16.0569 2.06312 17.4 3.71997 17.4H14.72C16.3768 17.4 17.72 16.0569 17.72 14.4V3.40002C17.72 1.74317 16.3768 0.400024 14.72 0.400024ZM14.72 14.4H3.71997V3.40002H14.72V14.4Z" fill="#CE6CB1"/>
<path fill-rule="evenodd" clip-rule="evenodd" d="M36.72 0.400024H25.72C24.0631 0.400024 22.72 1.74317 22.72 3.40002V14.4C22.72 16.0569 24.0631 17.4 25.72 17.4H36.72C38.3768 17.4 39.72 16.0569 39.72 14.4V3.40002C39.72 1.74317 38.3768 0.400024 36.72 0.400024ZM36.72 14.4H25.72V3.40002H36.72V14.4Z" fill="#CE6CB1"/>
<path fill-rule="evenodd" clip-rule="evenodd" d="M14.72 22.4H3.71997C2.06312 22.4 0.719971 23.7432 0.719971 25.4V36.4C0.719971 38.0569 2.06312 39.4 3.71997 39.4H14.72C16.3768 39.4 17.72 38.0569 17.72 36.4V25.4C17.72 23.7432 16.3768 22.4 14.72 22.4ZM14.72 36.4H3.71997V25.4H14.72V36.4Z" fill="#CE6CB1"/>
<path fill-rule="evenodd" clip-rule="evenodd" d="M36.72 22.4H25.72C24.0631 22.4 22.72 23.7432 22.72 25.4V36.4C22.72 38.0569 24.0631 39.4 25.72 39.4H36.72C38.3768 39.4 39.72 38.0569 39.72 36.4V25.4C39.72 23.7432 38.3768 22.4 36.72 22.4ZM36.72 36.4H25.72V25.4H36.72V36.4Z" fill="#CE6CB1"/>
</svg>
