<svg width="40" height="45" viewBox="0 0 40 45" fill="none" xmlns="http://www.w3.org/2000/svg">
<path fill-rule="evenodd" clip-rule="evenodd" d="M37.7202 7.4H29.1402C27.6598 3.48191 23.9087 0.889282 19.7202 0.889282C15.5318 0.889282 11.7806 3.48191 10.3002 7.4H1.72021C0.891788 7.4 0.220215 8.07157 0.220215 8.9C0.220215 9.72843 0.891788 10.4 1.72021 10.4H2.72021V41.4C2.72021 43.0569 4.06336 44.4 5.72021 44.4H32.7202C34.3771 44.4 35.7202 43.0569 35.7202 41.4V10.4H37.7202C38.5486 10.4 39.2202 9.72843 39.2202 8.9C39.2202 8.07157 38.5486 7.4 37.7202 7.4ZM19.7202 3.90002C22.4502 3.90002 24.8202 4.90002 25.9902 7.40002H13.4502C14.6202 4.89002 16.9902 3.90002 19.7202 3.90002ZM32.7202 41.4H28.7202V24.4C28.7202 23.5716 28.0486 22.9 27.2202 22.9C26.3918 22.9 25.7202 23.5716 25.7202 24.4V41.4H20.7202V18.4C20.7202 17.5716 20.0486 16.9 19.2202 16.9C18.3918 16.9 17.7202 17.5716 17.7202 18.4V41.4H12.7202V24.4C12.7202 23.5716 12.0486 22.9 11.2202 22.9C10.3918 22.9 9.72021 23.5716 9.72021 24.4V41.4H5.72021V10.4H32.7202V41.4Z" fill="#CD62AE"/>
</svg>
